<?xml version="1.0" standalone="no"?>
<!DOCTYPE svg PUBLIC "-//W3C//DTD SVG 1.1//EN" "http://www.w3.org/Graphics/SVG/1.1/DTD/svg11.dtd">
<svg xmlns="http://www.w3.org/2000/svg">
<metadata>Generated by Fontastic.me</metadata>
<defs>
<font id="manuals-icons" horiz-adv-x="512">
<font-face font-family="manuals-icons" units-per-em="512" ascent="480" descent="-32"/>
<missing-glyph horiz-adv-x="512" />

<glyph glyph-name="amplifier" unicode="&#97;" d="M428 328l-68 0 0 76c0 59-49 108-108 108-59 0-108-49-108-108l0-76-68 0 0-24 24 0 0-89c0-61 50-111 111-111l5 0 0-24-51 0-46-80 274 0-46 80-50 0 0 24 1 0c60 0 110 50 110 111l0 89 20 0z m-176 160c46 0 84-38 84-84l0-7-52 0 0-24 52 0 0-26-52 0 0-24 52 0 0-25-52 0 0-24 52 0 0-18c0-46-38-84-84-84-46 0-84 38-84 84l0 18 52 0 0 24-52 0 0 26 52 0 0 24-52 0 0 26 52 0 0 24-52 0 0 7c0 45 38 83 84 83z m99-464l-190 0 18 32 155 0z m-78 56l-33 0 0 24 33 0z m111 135c0-48-39-87-87-87l-86 0c-48 0-87 39-87 87l0 89 20 0 0-48c0-59 49-108 108-108 59 0 108 49 108 108l0 48 24 0z"/>
<glyph glyph-name="antennas" unicode="&#98;" d="M336 304c0 44-36 80-80 80-44 0-80-36-80-80 0-42 32-75 72-79l0-225 24 0 0 226c37 7 64 40 64 78z m-80-56c-31 0-56 25-56 56 0 31 25 56 56 56 31 0 56-25 56-56 0-31-25-56-56-56z m-220 60c0 77 40 144 101 182l-11 22c-68-42-114-118-114-204 0-87 47-164 117-206l11 20c-62 39-104 108-104 186z m350 204l-11-21c61-38 101-105 101-182 0-79-42-147-105-185l11-21c71 42 117 119 117 207 1 84-45 160-113 202z m40-204c0 58-29 110-75 139l-11-21c38-25 62-68 62-118 0-50-26-95-66-121l11-21c47 30 79 82 79 142z m-316 0c0 49 24 92 62 118l-11 21c-46-29-75-81-75-139 0-60 32-112 79-142l11 21c-40 26-66 71-66 121z"/>
<glyph glyph-name="audio-theater" unicode="&#99;" d="M416 488l0-464-320 0 0 464 320 0m24 24l-368 0 0-512 368 0z m-184-80c18 0 32-14 32-32 0-18-14-32-32-32-18 0-32 14-32 32 0 18 14 32 32 32m0 24c-31 0-56-25-56-56 0-31 25-56 56-56 31 0 56 25 56 56 0 31-25 56-56 56z m0-216c31 0 56-25 56-56 0-31-25-56-56-56-31 0-56 25-56 56 0 31 25 56 56 56m0 24c-44 0-80-36-80-80 0-44 36-80 80-80 44 0 80 36 80 80 0 44-36 80-80 80z m0 24c58 0 104-46 104-104 0-58-46-104-104-104-58 0-104 46-104 104 0 58 46 104 104 104m0 24c-70 0-128-58-128-128 0-70 58-128 128-128 70 0 128 58 128 128 0 70-58 128-128 128z"/>
<glyph glyph-name="automobile" unicode="&#100;" d="M512 302l-69 9-56 97-189 0-80-97-118-25 0-123 49-16c4-33 33-59 67-59 34 0 61 24 67 56l139 0c5-32 33-56 67-56 36 0 65 29 68 65l56 9 0 140z m-97 10l-73 0 0 72 31 0z m-205 72l108 0 0-72-168 0z m-94-272c-24 0-44 20-44 44 0 24 20 44 44 44 24 0 44-20 44-44 0-24-20-44-44-44z m272 0c-24 0-44 20-44 44 0 24 20 44 44 44 24 0 44-20 44-44 0-24-20-44-44-44z m100 70l-35-6c-9 28-35 48-65 48-34 0-61-24-67-56l-138 0c-5 32-33 56-67 56-32 0-59-22-66-52l-26 9 0 43 36 0 0 24-36 0 0 18 102 22 309 0 53-6z"/>
<glyph glyph-name="baby-care" unicode="&#101;" d="M440 512l-183 0 79-168-122 0-76 87-132 25-4-24 124-23 56-65-122 0 0-112c0-30 26-56 58-56l76 0-24-28c-12 7-27 12-42 12-44 0-80-36-80-80 0-44 36-80 80-80 44 0 80 36 80 80 0 20-7 38-20 53l38 43 100 0 38-44c-12-14-20-32-20-52 0-44 36-80 80-80 44 0 80 36 80 80 0 44-36 80-80 80-15 0-30-5-42-12l-24 28 92 0c30 0 62 19 62 52l0 224c0 33-32 60-72 60z m-256-432c0-31-25-56-56-56-31 0-56 25-56 56 0 31 25 56 56 56 10 0 18-2 26-6l-39-46 19-16 39 46c7-9 11-21 11-34z m240 56c31 0 56-25 56-56 0-31-25-56-56-56-31 0-56 25-56 56 0 13 4 25 11 34l39-46 19 16-39 46c8 4 16 6 26 6z m-306 64c-19 0-34 14-34 32l0 88 118 0 58-67-46-53z m128 0l30 34 30-34z m242 28c0-18-20-28-38-28l-113 0-103 120 254 0z m-125 116l-68 144 145 0c23 0 48-14 48-36l0-108z"/>
<glyph glyph-name="batteries" unicode="&#102;" d="M288 235l0 80-107-77 14-20 69 51 0-80 107 77-14 20z m224 85l-48 0 0 45c0 24-19 43-43 43l-421 0 0-312 421 0c24 0 43 19 43 43l0 45 48 0z m-488 64l80 0 0-264-80 0z m416-245c0-10-9-19-19-19l-293 0 0 264 293 0c10 0 19-9 19-19z m48 69l-24 0 0 88 24 0z"/>
<glyph glyph-name="bedroom" unicode="&#103;" d="M480 274l0 182-448 0 0-182c-18-4-32-21-32-41l0-181 24 0 0 40 464 0 0-40 24 0 0 181c0 20-14 37-32 41z m-256 6l-120 0 0 59c0 11 9 21 21 21l79 0c11 0 20-9 20-20z m184 0l-120 0 0 59c0 11 9 21 21 21l79 0c11 0 20-9 20-20z m-352 152l400 0 0-152-24 0 0 60c0 25-20 44-44 44l-79 0c-25 0-45-20-45-45l0-59-16 0 0 60c0 25-20 44-44 44l-79 0c-25 0-45-20-45-45l0-59-24 0z m-13-180l426 0c10 0 19-9 19-19l0-65-464 0 0 65c0 10 9 19 19 19z m445-136l-464 0 0 28 464 0z"/>
<glyph glyph-name="beds-mattresses" unicode="&#104;" d="M512 478c0 19-15 34-34 34l-444 0c-19 0-34-15-34-34l0-456c0-12 10-22 22-22l468 0c12 0 22 10 22 22z m-488 0c0 6 4 10 10 10l444 0c6 0 10-4 10-10l0-380c0-6-4-10-10-10l-444 0c-6 0-10 4-10 10z m464-454l-464 0 0 40 464 0z m-364 380l24 0 0-24-24 0z m240 0l24 0 0-24-24 0z m-120 0l24 0 0-24-24 0z m-120-104l24 0 0-24-24 0z m240 0l24 0 0-24-24 0z m-120 0l24 0 0-24-24 0z m-120-104l24 0 0-24-24 0z m240 0l24 0 0-24-24 0z m-120 0l24 0 0-24-24 0z"/>
<glyph glyph-name="bicycles" unicode="&#105;" d="M412 280c-6 0-13-1-19-2l-22 74c-8 28-34 48-64 48l-23 0 0-24 23 0c19 0 36-13 41-30-1 0-2 0-2 0l-143-2-9 32 18 0 0 24-88 0 0-24 46 0 12-44-42-61c-12 6-26 9-40 9-55 0-100-45-100-100 0-55 45-100 100-100 51 0 94 38 99 88l3 0c25 0 48 11 65 30l92 111 11-39c-34-16-58-50-58-90 0-55 45-100 100-100 55 0 100 45 100 100 0 55-45 100-100 100z m-312-176c-42 0-76 34-76 76 0 42 34 76 76 76 10 0 18-2 26-5l-56-83 105 0c-6-36-37-64-75-64z m75 88l-60 0 33 47c14-11 24-28 27-47z m24 0c-3 27-17 51-38 67l29 43 29-108c-5-1-11-2-17-2z m50 22c-3-3-5-6-7-8l-32 114 128 2z m163-110c-42 0-76 34-76 76 0 30 17 54 41 67l23-79 23 7-23 80c4 1 8 1 12 1 42 0 76-34 76-76 0-42-34-76-76-76z"/>
<glyph glyph-name="big-arrow-l" unicode="&#106;" d="M307 4l23 11-123 241 123 241-23 11-128-252z"/>
<glyph glyph-name="big-arrow-r" unicode="&#107;" d="M205 4l-23 11 121 241-121 241 23 11 128-252z"/>
<glyph glyph-name="binoculars" unicode="&#108;" d="M503 208l-75 195c-10 31-38 52-72 52-41 0-74-32-76-72l-48 0c-2 40-35 72-76 72-34 0-62-21-72-52l-75-195c-6-14-9-28-9-44 0-64 52-116 116-116 60 0 110 46 115 104l50 0c6-58 55-104 115-104 64 0 116 52 116 116 0 16-3 30-9 44z m-147 224c21 0 39-13 47-31l53-139c-18 12-38 18-61 18-36 0-69-17-89-43l-2 143c0 29 23 52 52 52z m-74-200l-52 0 2 128 48 0z m-52-43l0 19 52 0 0-19c0-4-1-9-2-13l-50 0c1 5 0 9 0 13z m-121 212c8 18 26 31 47 31 29 0 52-23 52-52l-2-143c-21 26-54 43-90 43-22 0-43-6-61-18z m7-329c-50 0-92 42-92 92 0 50 42 92 92 92 50 0 92-42 92-92 0-50-42-92-92-92z m280 0c-50 0-92 42-92 92 0 50 42 92 92 92 50 0 92-42 92-92 0-50-42-92-92-92z"/>
<glyph glyph-name="blenders" unicode="&#109;" d="M427 419l-31 0 9 28c7 13-4 30-24 33l-69 0-28 32-100 0-24-32-98 0c-16 0-30-14-30-30 0-11 6-21 15-27l61-28 24-185-40-113-32-8 0-89 368 0 0 89-32 8-40 113 62 33c26 14 42 41 42 71l0 72c0 19-14 33-33 33z m-305-4l-4 2-60 27c-1 2-2 3-2 6 0 3 3 6 6 6l110 0 24 32 77 0 28-32 77 0c2-1 3-1 4-2l-12-38z m256-338l26-7 0-46-320 0 0 46 26 6 44 121 181 0z m-48 146l-2-1-174 0-21 169 233 1z m106 91c0-21-11-40-29-49l-49-27 32 157 37 0c5 0 9-4 9-9z m-196-148c-31 0-56-26-56-57 0-31 25-57 56-57 31 0 56 26 56 57 0 31-25 57-56 57z m0-89c-18 0-32 14-32 33 0 17 14 32 32 32 18 0 32-14 32-32 0-19-14-33-32-33z m-20 217l40 0 0-24-40 0z m-24 64l88 0 0-24-88 0z"/>
<glyph glyph-name="blowers" unicode="&#110;" d="M188 326c-58 0-106-47-106-106 0-59 47-106 106-106 59 0 106 47 106 106 0 59-48 106-106 106z m0-188c-46 0-82 37-82 83 0 45 36 82 82 82 46 0 82-37 82-82 0-46-37-83-82-83z m79 269l-67 59-99 0c-39 0-71-29-76-67l-16-121c-6-18-9-37-9-57 0-103 84-187 187-187 103 0 187 84 187 187 0 9 0 17-1 26l81 0c32 0 56 25 56 56l0 102z m-218-11c3 26 25 46 52 46l89 0 40-35c0 0-48 1-51 1l-1 0c-56-2-105-30-138-70z m139-339c-90 0-164 73-164 164 0 88 71 161 159 163l11 0c88-3 157-75 157-163 0-91-73-164-163-164z m299 245c0-17-14-32-32-32l-86 0c-14 48-45 88-87 112l205-2z"/>
<glyph glyph-name="boating-equipments" unicode="&#111;" d="M475 90c-9-8-16-14-32-14-10 0-17 3-22 7l85 109-231 0 0 27 197-2-198 288 0 7-24 0 2-320-252 0 70-96c-2-2-4-4-6-6-9-8-16-14-32-14-16 0-23 7-32 14l0-30c8-5 18-9 33-9 25 0 38 12 48 21 7 7 11 10 21 10 9 0 12-3 20-10 10-9 24-21 48-21 25 0 39 12 48 21 8 7 12 10 21 10 10 0 13-3 21-10 10-9 23-21 48-21 25 0 38 12 48 21 8 7 11 10 21 10 9 0 13-3 21-10 9-9 23-21 48-21 24 0 38 12 48 21 8 7 11 10 20 10l0 24c-20 0-30-8-39-16z m-49 152l-150 1-2 219z m-88-152c-8-8-16-14-32-14-16 0-23 7-32 14-8 8-18 17-36 17-19 0-28-9-37-17-9-8-16-14-32-14-16 0-23 7-32 14-9 8-19 17-37 17-3 0-6 0-8-1l-44 62 409 0-55-70c-6 4-15 8-27 8-18 0-28-8-37-16z"/>
<glyph glyph-name="booster-pumps" unicode="&#112;" d="M272 405c0 28-23 51-51 51l-138 0c-28 0-51-23-51-51l0-277 239 1z m-25-252l-191-1 0 253c0 15 12 27 27 27l138 0c7 0 14-3 19-8 5-5 8-12 8-19z m209-57l0 112-128 0 0-112-328-2 0-24 352 2 0 112 80 0 0-112 80 0 0 24z m-78 316l0-164 24 0 0 164 36-33 16 18-64 58-64-58 16-18z"/>
<glyph glyph-name="button-arrow" unicode="&#113;" d="M165 4l-55 47 186 205-186 205 55 47 234-252z"/>
<glyph glyph-name="calculators" unicode="&#114;" d="M438 488c1 0 2-1 2-2l0-460c0-1-1-2-2-2l-364 0c-1 0-2 1-2 2l0 460c0 1 1 2 2 2l364 0m0 24l-364 0c-15 0-26-11-26-26l0-460c0-15 11-26 26-26l364 0c15 0 26 11 26 26l0 460c0 15-11 26-26 26z m-62-120l0-56-240 0 0 56 240 0m24 24l-288 0 0-104 288 0z m-160-144l-48 0 0-48 48 0z m-80 0l-48 0 0-48 48 0z m160 0l-48 0 0-48 48 0z m-80-80l-48 0 0-48 48 0z m-80 0l-48 0 0-48 48 0z m160 0l-48 0 0-48 48 0z m-80-80l-48 0 0-48 48 0z m-80 0l-48 0 0-48 48 0z m160 0l-48 0 0-48 48 0z m80 160l-48 0 0-48 48 0z m0-80l-48 0 0-128 48 0z m-284 280l128 0 0-24-128 0z"/>
<glyph glyph-name="cameras-videos" unicode="&#115;" d="M260 80c73 0 132 59 132 132 0 73-59 132-132 132-73 0-132-59-132-132 0-73 59-132 132-132z m0 240c59 0 108-49 108-108 0-59-49-108-108-108-59 0-108 49-108 108 0 59 49 108 108 108z m0-192c46 0 84 38 84 84 0 46-38 84-84 84-46 0-84-38-84-84 0-46 38-84 84-84z m0 144c33 0 60-27 60-60 0-33-27-60-60-60-33 0-60 27-60 60 0 33 27 60 60 60z m113 116l-34 45c-10 14-28 23-46 23l-67 0c-18 0-35-9-46-23l-34-45-146 0 0-352 512 0 0 352z m-173 30c6 9 17 14 27 14l67 0c10 0 20-5 27-14l23-30-167 0z m288-358l-464 0 0 304 464 0z m-84 260l48 0 0-24-48 0z"/>
<glyph glyph-name="car-audio" unicode="&#116;" d="M392 256l-9 0-34 96-187 0-33-96-9 0c-14 0-24-10-24-24l0-136 33 0 0-34c0-8 5-14 13-14l29 0c7 0 14 6 14 14l0 34 145 0 0-34c0-8 5-14 13-14l29 0c7 0 14 6 14 14l0 34 32 0 0 136c-2 14-12 24-26 24z m-213 72l153 0 26-72-204 0z m-19-256l-7 0 0 24 7 0z m200 0l-7 0 0 24 7 0z m32 48l-272 0 0 112 272 0z m-206 56c0 13-11 24-24 24-14 0-25-11-25-24 0-13 11-24 25-24 13 0 24 11 24 24z m189 0c0 13-11 24-25 24-13 0-24-11-24-24 0-13 11-24 24-24 14 0 25 11 25 24z m112 108l-7 0c-9 114-104 204-220 204-116 0-211-90-219-204l-16 0c-14 0-25-11-25-25l0-141c0-14 11-26 26-26l54 0 0 192-15 0c8 101 93 180 195 180 102 0 187-79 195-180l-23 0 0-192 55 0c14 0 25 11 25 25l0 142c0 14-11 25-25 25z m-431-168l-30 0c-1 0-2 1-2 2l0 141c0 1 1 1 1 1l31 0z m432 1c0-1-1-1-1-1l-31 0 0 144 31 0c1 0 1-1 1-1z"/>
<glyph glyph-name="chainsaws" unicode="&#117;" d="M163 238l18 16 62-68-17-16z m317 164l21-5 6 23-22 6c0 12-3 25-10 36l18 18-17 17-17-17c-10 8-22 12-34 13l0 19-24 0 0-22c-11-4-19-9-27-17l-6-4-15 15-17-17 15-15-23-23-15 15-17-17 15-15-23-23-15 15-17-17 15-15-23-23-15 15-17-17 15-15-22-22c-7 4-16 6-25 6 0 0 0 0-1 0-13 0-25-5-34-13l-27 11-1 0c-19 5-39 0-52-14l-47-48c-19-19-10-47 8-66l-14-15 25-35-28-24c-15-13-17-34-6-50l35-45c6-9 16-15 26-15 2 0 3 0 5 0 9 0 17 3 25 8l20 17 18-27 193 189-27 28 22 22 15-15 17 17-15 15 23 23 15-15 17 17-15 15 23 23 15-15 17 17-15 15 23 23 15-15 17 17-15 15 5 5c6 6 11 13 14 21z m-441-167l47 48c8 7 18 11 28 7l16-6-82-81c-9 9-17 24-9 32z m43-207c-3-2-7-4-11-3-4 1-8 2-10 6l-35 46c-4 5-3 13 3 17l25 22 49-70z m57 9l-92 132 116 115c6 6 13 9 21 9 8 0 15-3 21-9l90-94z m125 219l159 158-17 17-158-158-20 21 162 163c8 8 19 12 29 12 11 0 22-4 30-12 16-16 16-43 0-59l-164-164z m-172-99l48 48 17-17-48-48z"/>
<glyph glyph-name="cleaners" unicode="&#118;" d="M501 1l-37 210 0 27c0 32-26 58-58 58l-95 0 0 217-110 0 0-217-95 0c-32 0-58-26-58-58l0-27-37-210z m-139 24l0 86-24 0 0-86-70 0 0 113-24 0 0-113-69 0 0 86-24 0 0-86-111 0 30 173 373 0 29-173z m-137 464l62 0 0-193-62 0z m-154-251c0 19 15 34 34 34l301 0c18 0 33-15 33-34l0-16-368 0z"/>
<glyph glyph-name="coffee-makers" unicode="&#119;" d="M80 364l24 0 0-240-24 0z m207 5c1-31 27-57 59-57l12 0c32 0 58 26 58 58l0 30 96 0 0 112-512 0 0-512 512 0 0 88-64 0c10 9 17 19 21 32l43 0 0 104-40 0 0 36-244 0 0-117c0-21 10-41 24-55l-68 0 0 312 114 0-12 0z m-127 55l0-400-136 0 0 464 136 0z m312-224l16 0 0-56-16 0z m-220-57l0 93 196 0 0-93c0-28-23-51-51-51l-94 0c-28 0-51 23-51 51z m-60-79l296 0 0-40-296 0z m200 306c0-19-15-34-34-34l-12 0c-19 0-34 15-35 34l-1 30 82 0z m-208 54l0 64 304 0 0-64z"/>
<glyph glyph-name="compasses" unicode="&#120;" d="M289 445c5 6 7 14 7 23 0 24-20 44-44 44-24 0-44-20-44-44 0-8 2-16 6-23-105-17-186-108-186-219 0-123 99-223 222-223 124 0 222 100 222 223 0 109-79 200-183 219z m-37 43c11 0 20-9 20-20 0-11-9-20-20-20-11 0-20 9-20 20 0 11 9 20 20 20z m-2-460c-109 0-199 89-199 198 1 109 90 198 199 198 108 0 198-89 198-198 0-109-89-198-198-198z m-10 368l24 0 0-40-24 0z m0-304l24 0 0-40-24 0z m144 144l40 0 0-24-40 0z m-304 0l40 0 0-24-40 0z m64-116l137 71 71 137-137-71z m152 152l-33-63-63-33 33 63z"/>
<glyph glyph-name="cooktop" unicode="&#121;" d="M488 488l0-464-464 0 0 464 464 0m24 24l-512 0 0-512 512 0z m-360-288c35 0 64-29 64-64 0-35-29-64-64-64-35 0-64 29-64 64 0 35 29 64 64 64m0 24c-49 0-88-39-88-88 0-49 39-88 88-88 49 0 88 39 88 88 0 49-39 88-88 88z m0-64c14 0 24-10 24-24 0-14-10-24-24-24-14 0-24 10-24 24 0 14 10 24 24 24m0 24c-26 0-48-22-48-48 0-26 22-48 48-48 26 0 48 22 48 48 0 26-22 48-48 48z m0 208c31 0 56-25 56-56 0-31-25-56-56-56-31 0-56 25-56 56 0 31 25 56 56 56m0 24c-44 0-80-36-80-80 0-44 36-80 80-80 44 0 80 36 80 80 0 44-36 80-80 80z m208-224c31 0 56-25 56-56 0-31-25-56-56-56-31 0-56 25-56 56 0 31 25 56 56 56m0 24c-44 0-80-36-80-80 0-44 36-80 80-80 44 0 80 36 80 80 0 44-36 80-80 80z m0 152c18 0 32-14 32-32 0-18-14-32-32-32-18 0-32 14-32 32 0 18 14 32 32 32m0 24c-31 0-56-25-56-56 0-31 25-56 56-56 31 0 56 25 56 56 0 31-25 56-56 56z"/>
<glyph glyph-name="cutters" unicode="&#122;" d="M463 332c-10 23-21 43-32 61l81 59-14 19-80-58c-49 70-93 89-93 89l-301-374 0 37-24 0 0-165 512 0 0 101c2 16 8 106-49 231z m-22-10c30-67 41-124 45-159 2-17 3-30 3-41l-427 0 349 257c10-17 20-36 30-57z m-111 149c16-11 40-33 68-72l-306-225z m158-447l-464 0 0 72 464 0z m-434 48l178 0 0-24-178 0z"/>
<glyph glyph-name="desks-tables" unicode="&#65;" d="M0 472l0-179 32 0 0-261 72 0 0 261 304 0 0-261 72 0 0 261 32 0 0 179z m80-416l-24 0 0 237 24 0z m376 0l-24 0 0 237 24 0z m32 261l-464 0 0 73 464 0z m-464 98l0 33 464 0 0-33z m192-49l88 0 0-24-88 0z"/>
<glyph glyph-name="detectorssvg" unicode="&#66;" d="M310 400l-174 0 0 78c0 19-16 34-36 34-20 0-36-15-36-34l0-446c0-18 15-32 34-32l212 0c19 0 34 14 34 32l0 336c0 18-15 32-34 32z m-222 78c0 5 6 10 12 10 6 0 12-5 12-10l0-78c0 0-21 0-24 0z m232-446c0-5-5-8-10-8l-212 0c-5 0-10 4-10 8l0 344 222 0c5 0 10-4 10-8z m-128 316l24 0 0-16-24 0z m0-48l24 0 0-16-24 0z m64-16l24 0 0-16-24 0z m-128 0l24 0 0-16-24 0z m112 40l24 0 0-16-24 0z m-96 0l24 0 0-16-24 0z m203 96l80 88 18-16-80-88z m-223-348l0-24 160 0 0 184-160 0z m24 136l112 0 0-136-112 0z m232 168l88 0 0-24-88 0z m-84 136l24 0 0-80-24 0z m70-215l12 21 56-32-11-21z"/>
<glyph glyph-name="digital-signage" unicode="&#67;" d="M512 80l0 408-512 0 0-408 246 0 0-40-78 0 0-24 180 0 0 24-78 0 0 40z m-24 64l-464 0 0 280 464 0z m0 320l0-16-464 0 0 16z m-464-344l464 0 0-16-464 0z"/>
<glyph glyph-name="dive-products" unicode="&#68;" d="M229 192l6 0 59-56 118 0 48 55 0 178-57 55-342 0-57-55 0-178 48-55 118 0z m-166-32l-35 41 0 158 42 41 324 0 42-41 0-158-34-41-99 0-58 56-26 0-58-56z m180 74c7 0 14-2 19-7l34-33c10-8 22-14 35-14l31 0c16 0 30 6 40 18l4 5c7 9 10 19 10 30l0 99c0 14-6 26-16 36-10 8-22 13-34 13l-268 0c-13 0-25-5-34-13-10-9-16-22-16-36l0-98c0-12 4-22 10-30l4-5c10-12 24-18 40-18l31 0c13 0 25 5 35 14l34 33c5 5 12 7 19 7l22 0z m-57 10l-35-33c-5-5-12-7-18-7l-31 0c-8 0-16 3-21 10l-4 4c-3 4-5 10-5 15l0 99c0 6 3 13 8 18 5 4 11 6 18 6l268 0c6 0 12-2 17-6 6-5 8-12 8-18l0-98c0-6-1-11-5-15l-4-5c-5-6-13-9-21-9l-31 0c-8 0-14 2-19 7l-34 33c-10 9-23 14-35 14l-23 0c-11-1-24-5-33-15z m299 268l0-291c0-35-14-67-39-93-29-28-69-44-111-44l-29 0 0 24-144 0 0-72 144 0 0 24 28 0c0 0 1 0 1 0 48 0 95 18 127 51 30 30 47 69 47 110l0 291z m-203-452l-96 0 0 24 96 0z"/>
<glyph glyph-name="door" unicode="&#69;" d="M448 24l0 488-376 0 0-488-72 0 0-24 512 0 0 24z m-296 0l0 408 216 0 0-408z m240 0l0 432-264 0 0-432-32 0 0 464 328 0 0-464z m-108 232l56 0 0-24-56 0z"/>
<glyph glyph-name="download" unicode="&#70;" d="M461 154l0-103-410 0 0 103-51 0 0-154 512 0 0 154z m-59 135l-36 36-84-84 0 271-52 0 0-271-84 84-36-36 146-146z"/>
<glyph glyph-name="engines" unicode="&#71;" d="M495 309c-18 22-45 35-75 35l-12 0 0-48-16 0 0 40-64 0 0 72-96 0 0 16 100 0 0 24-224 0 0-24 100 0 0-16-96 0 0-40-72 0 0-112-16 0 0 116-24 0 0-248 24 0 0 108 16 0 0-104 80 0 96-64 176 0 0 72 16 0 0-48 12 0c34 0 66 18 82 48l10 17 0 135z m-7-150l-6-11c-11-18-29-31-50-34l0 46-64 0 0-72-144 0-96 64-64 0 0 192 72 0 0 40 168 0 0-72 64 0 0-40 64 0 0 47c18-3 33-12 44-25l12-14z m-235 149l-18 16-81-92 80 0-47-52 18-16 81 92-80 0z"/>
<glyph glyph-name="fans" unicode="&#72;" d="M413 266c-31 21-79 16-109 10-2 6-6 12-11 17 21 23 49 61 46 101-3 42-51 57-83 57-31 0-80-15-83-57-3-39 25-77 46-101-5-5-9-11-11-17-14 3-30 6-48 6-25 0-46-6-61-16-35-24-24-74-9-101 13-22 40-48 69-48 7 0 15 1 23 5 32 16 52 55 61 83 4-1 8-2 13-2 4 0 8 1 11 2 10-28 29-68 62-84 7-4 15-6 22-6 30 0 57 27 70 48 16 29 27 79-8 103z m-215 126c2 29 44 36 59 36 14 0 57-6 59-36 2-31-25-66-42-84-5 2-12 3-18 3-6 0-12-1-18-3-16 18-43 53-40 84z m-26-248c-26-13-53 21-61 34-7 12-23 52 2 68 11 8 27 12 48 12 15 0 30-2 42-4 1-16 8-29 19-38-8-22-24-59-50-72z m56 112c0 15 13 28 28 28 15 0 28-13 28-28 0-15-13-28-28-28-15 0-28 13-28 28z m172-79c-7-13-34-47-61-34-26 13-42 51-50 72 11 9 18 23 20 38 24 5 65 10 89-7 25-17 10-57 2-69z m-144 335c-142 0-256-114-256-256 0-142 115-256 256-256 141 0 256 115 256 256 0 141-115 256-256 256z m0-488c-128 0-232 104-232 232 0 128 104 232 232 232 128 0 232-104 232-232 0-128-104-232-232-232z"/>
<glyph glyph-name="fax-machine" unicode="&#73;" d="M404 120l24 0 0-24-24 0z m-64 0l24 0 0-24-24 0z m-64 0l24 0 0-24-24 0z m-64 0l24 0 0-24-24 0z m192 56l24 0 0-24-24 0z m-64 0l24 0 0-24-24 0z m-64 0l24 0 0-24-24 0z m-64 0l24 0 0-24-24 0z m0 64l216 0 0-24-216 0z m264 80l0 80-104 112-176 0 0-192-36 0 0 29c0 19-16 35-35 35l-90 0c-19 0-35-16-35-35l0-314c0-19 16-35 35-35l425 0c29 0 52 23 52 52l0 268z m-100 152l67-72-67 0z m-156 16l132 0 0-112 100 0 0-56-232 0z m-84-464l-101 0c-6 0-11 5-11 11l0 314c0 6 5 11 11 11l90 0c6 0 11-5 11-11z m352 28c0-16-13-28-28-28l-300 0 0 272 328 0z"/>
<glyph glyph-name="food-processor" unicode="&#74;" d="M467 234l-11 0 0 126 20 0 0 24-140 0 0-24 24 0 0-96-160 0 0 184 20 0 0 24-21 0c-4 22-23 40-47 40l-104 0 0-56-4 0c-24 0-44-20-44-44l0-47c0-25 20-45 44-45l4 0 0-56-24 0 0-264 432 0 0 96 11 0c25 0 45 20 45 45l0 49c0 24-20 44-45 44z m-83 126l48 0 0-96-48 0z m48-120l0-144-200 0 0 144z m-280 248c10 0 19-6 22-16l-102 0 0 16z m-108-144c-11 0-20 9-20 20l0 47c0 12 9 21 20 21l4 0 0-88z m28 104l104 0 0-143-104 0z m0-167l104 0 0-17-104 0z m-24-257l0 216 160 0 0-168 224 0 0-48z m440 117c0-11-9-21-21-21l-11 0 0 90 11 0c11 0 21-8 21-20z m-188 59l64 0 0-24-64 0z m0-40l64 0 0-24-64 0z"/>
<glyph glyph-name="garage-door-openers" unicode="&#75;" d="M256 512l-256-112 0-80 24 0 0-320 464 0 0 320 24 0 0 80z m0-26l232-102 0-34-232 99-232-99 0 34z m208-462l-416 0 0 310 208 89 208-89z m-256 24l96 0 0 136-96 0z m24 112l48 0 0-88-48 0z m12-16l24 0 0-24-24 0z m12 120c-32 0-59-18-72-46l18-19c7 23 28 41 54 41 26 0 47-17 54-41l18 19c-13 28-40 46-72 46z m0 96c-58 0-109-28-141-70l17-18c27 38 73 64 124 64 51 0 96-26 124-64l17 18c-32 42-83 70-141 70z m0-48c-45 0-84-23-106-58l17-17c18 30 51 51 89 51 38 0 71-21 90-51l17 17c-23 35-62 58-107 58z"/>
<glyph glyph-name="gps" unicode="&#76;" d="M64 512l0-512 384 0 0 512z m360-24l0-384-336 0 0 384z m-336-464l0 56 336 0 0-56z m166 132l122 247-253-116 117-20z m70 197l-57-115-5 50-58 10z m-88-289l40 0 0-24-40 0z"/>
<glyph glyph-name="headsets" unicode="&#77;" d="M461 360l-8 0c-23 87-103 152-197 152-94 0-174-65-197-152l-8 0c-28 0-51-23-51-51l0-130c0-33 26-59 59-59l85 0 0 240-60 0c22 74 91 128 172 128 81 0 150-54 172-128l-60 0 0-240 56 0c-2-31-28-56-60-56l-35 0c-7 16-23 28-41 28l-56 0c-24 0-44-20-44-44 0-24 20-44 44-44l56 0c22 0 39 15 43 36l33 0c45 0 82 35 84 80l5 0c33 0 59 26 59 59l0 130c0 28-23 51-51 51z m-437-181l0 130c0 15 12 27 27 27l33 0 0-192-25 0c-19 0-35 16-35 35z m96-35l-12 0 0 192 12 0z m168-116l-56 0c-11 0-20 9-20 20 0 11 9 20 20 20l56 0c11 0 20-9 20-20 0-11-9-20-20-20z m104 308l12 0 0-192-12 0z m96-157c0-19-16-35-35-35l-25 0 0 192 33 0c15 0 27-12 27-27z"/>
<glyph glyph-name="heaters" unicode="&#78;" d="M0 512l0-488 96 0 0 384 320 0 0-384 96 0 0 488z m72-464l-48 0 0 360 48 0z m416 0l-48 0 0 360 48 0z m-464 384l0 56 464 0 0-56z m310-134l-78 78-78-78c-29-29-46-69-46-112l0-1c0-33 13-63 35-87l-25 6-4-24 59-12-59-12 4-23 114 23 114-24 4 23-59 12 59 12-4 25-26-6c22 23 36 54 36 88 0 43-17 83-46 112z m-178-112c0 36 14 70 39 96l61 60 61-60c25-26 39-60 39-96 0-55-45-100-99-101l-1 0c-26 0-51 10-70 29-20 19-30 44-30 71z m100-97c30 0 54 25 54 54 0 19-7 36-20 49l-34 34-34-34c-13-13-20-30-20-50 0-14 5-28 16-38 10-10 24-15 38-15z m-17 86l17 17 17-17c9-9 13-20 13-32 0-17-14-30-30-30-8 0-15 3-22 9-5 5-8 13-8 21 0 12 4 23 13 32z"/>
<glyph glyph-name="home-gyms" unicode="&#79;" d="M230 97l-4 3c7 13 11 28 11 43 0 51-42 92-92 92-51 0-93-41-93-91 0-50 42-92 92-92 26 0 50 11 67 29l3-3c12-9 26-14 41-14l46 0 0 24-46 0c-9 0-19 3-25 9z m-86-21c-38 0-68 30-68 68 0 38 30 68 68 68 38 0 68-30 68-68 0-10-2-19-6-28l-51 41-15-19 52-42c-12-12-29-20-48-20z m306 74l-67 34 43 90c8 18 0 40-17 49l36 95c25 4 46 22 54 47l13 40-23 7-13-40c-6-19-23-32-43-32l-61 0 0-24 46 0-31-82-28 14-61-122-72 36c-11 8-23 13-35 18-15 5-31 8-47 8-3 0-6 0-9-1l-12 62 53 0 0 22c0 38-30 68-68 68l-46 0c-18 0-32-14-32-32l0-58 69 0 13-65c-64-14-112-72-112-140 0-79 65-144 144-144 0 0 1 0 1 0l291 0c42 0 76 34 76 76 0 38-27 69-62 74z m-396 258c0 5 4 8 8 8l46 0c24 0 43-19 44-42l-98 0z m316-92l28-14c7-3 9-12 6-18l-42-89-43 21z m68-292l-296 0c-65 1-118 54-118 120 0 66 54 120 120 120 13 0 26-2 37-6l275-134c18-8 32-26 32-48 0-28-22-51-50-52z"/>
<glyph glyph-name="home-office" unicode="&#80;" d="M510 317c0 24-20 44-44 44l-5 0c-25 0-45-20-45-45l0-29 34 0 0-44c0-10-7-19-17-21l-14 0c-2 19-17 35-35 40l0 250-256 0 0-250c-18-5-33-20-35-40l-15 1c-10 2-17 11-17 21l0 44 35 0 0 29c0 25-20 45-45 45l-5 0c-24 0-44-20-44-44l0-30 35 0 0-44c0-22 16-41 38-45l17-1 0-57 152 0 0-37-128 0 0-30c-15-5-26-20-26-36 0-21 17-39 39-39 21 0 38 17 38 39 0 16-11 31-25 36l0 6 104 0 0-6c-16-5-26-20-26-36 0-21 17-39 38-39 22 0 39 17 39 39 0 16-11 31-26 36l0 6 104 0 0-6c-15-5-25-20-25-36 0-21 16-39 38-39 22 0 38 17 38 39 0 16-11 31-25 36l0 30-128 0 0 36 152 0 0 58 15 0 2 0c22 4 38 23 38 45l0 44 34 0 0 30z m-484 0c0 11 9 20 20 20l5 0c11 0 21-10 21-21l0-5-46 0z m102-293c-8 0-14 6-14 14 0 8 6 15 14 15 8 0 14-7 14-15 0-8-6-14-14-14z m128 0c-8 0-14 6-14 14 0 8 6 15 14 15 8 0 14-7 14-15 0-8-6-14-14-14z m128 0c-8 0-14 6-14 14 0 8 6 15 14 15 8 0 14-7 14-15 0-8-6-14-14-14z m-232 268l208 0 0-29-208 0z m208 24l-208 0 0 26 208 0z m0 172l0-122-208 0 0 122z m36-324l-280 0 0 52c0 13 10 23 23 23l234 0c13 0 23-10 23-23z m90 147l-46 0 0 5c0 11 10 21 21 21l5 0c11 0 20-9 20-20z"/>
<glyph glyph-name="hoods-vents" unicode="&#81;" d="M504 262l-152 118 0 132-195 0 0-134-149-116c-5-2-8-6-8-11l0-77c0-6 5-11 11-11l489 0c6 0 11 5 11 11l0 77c1 4-2 9-7 11z m-39 0l-418 0 128 100 161 0z m-284 226l147 0 0-102-147 0z m307-302l-464 0 0 52 464 0z m-390-47l-12-21c5-2 19-12 19-22 0-3-9-10-15-13-12-8-26-17-26-34 0-27 36-43 40-44l9 22c-11 4-25 15-25 23 0 3 9 9 14 12 12 8 26 17 26 34 1 26-27 42-30 43z m105 0l-11-21c5-2 18-12 18-22 0-3-8-10-14-13-11-7-26-17-26-33 0-28 36-43 40-44l9 22c-10 4-25 14-25 22 0 4 9 10 15 13 11 7 25 17 25 34 0 25-28 41-31 42z m105 0l-11-21c5-2 18-12 18-22 0-3-9-10-14-13-11-7-26-17-26-33 0-28 36-43 40-44l9 22c-9 3-25 14-25 22 0 3 9 9 15 12 11 8 25 17 25 34 0 26-28 42-31 43z m106 0l-12-21c5-2 19-12 19-22 0-3-9-10-15-13-11-7-25-17-25-33 0-28 36-43 40-44l9 22c-9 3-25 14-25 22 0 3 9 9 14 12 11 8 26 17 26 34-1 26-28 42-31 43z"/>
<glyph glyph-name="hubs-switches" unicode="&#82;" d="M0 512l0-512 512 0 0 512z m488-488l-464 0 0 128 464 0z m-464 152l0 312 464 0 0-312z m40-64l48 0 0-48-48 0z m72 0l48 0 0-48-48 0z m72 0l48 0 0-48-48 0z m72 0l48 0 0-48-48 0z m-204 152l360 0 0-24-360 0z m0 176l360 0 0-24-360 0z m340-396c24 0 44 20 44 44 0 24-20 44-44 44-24 0-44-20-44-44 0-24 20-44 44-44z m0 64c11 0 20-9 20-20 0-11-9-20-20-20-11 0-20 9-20 20 0 11 9 20 20 20z"/>
<glyph glyph-name="intercom" unicode="&#83;" d="M88 512l0-512 336 0 0 512z m312-488l-288 0 0 464 288 0z m-144 264c49 0 88 39 88 88 0 49-39 88-88 88-49 0-88-39-88-88 0-49 39-88 88-88z m0 152c35 0 64-29 64-64 0-35-29-64-64-64-35 0-64 29-64 64 0 35 29 64 64 64z m24-64c0-13-11-24-24-24-13 0-24 11-24 24 0 13 11 24 24 24 13 0 24-11 24-24z m-132-168l28 0 0-24-28 0z m64 0l28 0 0-24-28 0z m-64-64l28 0 0-24-28 0z m64 0l28 0 0-24-28 0z m-64-64l28 0 0-24-28 0z m64 0l28 0 0-24-28 0z m64 128l28 0 0-24-28 0z m64 0l28 0 0-24-28 0z m-24-48c-29 0-52-23-52-52 0-29 23-52 52-52 29 0 52 23 52 52 0 29-23 52-52 52z m0-80c-15 0-28 13-28 28 0 15 13 28 28 28 15 0 28-13 28-28 0-15-13-28-28-28z m-168 184l220 0 0-24-220 0z"/>
<glyph glyph-name="iron" unicode="&#84;" d="M0 112l512 0 0-24-512 0z m511 36c3 89-9 186-47 239-9 13-24 21-40 21l-216 0c-9 0-17-2-24-6-16-10-32-22-46-35l-16 14c-5 5-12 8-20 8-8 0-15-4-20-10l-45-52c-13-15-11-37 2-50l15-13c-22-36-40-76-54-116z m-315 233c3 1 7 3 12 3l217 0c8 0 15-4 20-10 28-40 44-114 43-202l-454 0c38 94 96 169 162 209z m-140-87c-5 5-5 12-1 17l45 52c1 1 2 2 3 2 1 0 2 0 3-1l14-13c-20-20-38-42-54-66z m376-68c4 32 2 61-8 88-6 16-22 26-38 26l-132 0c-9 0-19-3-27-9-36-26-55-54-67-100l-3-15 274 0z m-22 14l-222 0c10 32 26 51 54 72 4 2 8 4 12 4l131 0c7 0 13-5 16-11 8-19 10-42 9-65z"/>
<glyph glyph-name="juicers" unicode="&#85;" d="M228 144l40 0 0-24-40 0z m-24 56l88 0 0-24-88 0z m24 56l40 0 0-24-40 0z m-24 56l88 0 0-24-88 0z m269 88l-126 0-23 87c-4 15-18 25-32 25l-80 0c-14 0-27-10-32-23l-27-89-128 0c-8 0-16-4-20-10-5-7-6-16-3-24l1-1 1-2 76-134 6-149-16 0c-12 0-23-9-24-21l-6-59 416 0-6 59c-2 12-12 21-24 21l-19 0 14 96 57 0c19 0 35 15 35 34l0 151c-1 21-19 39-40 39z m-270 82c1 4 5 6 9 6l80 0c4 0 8-3 9-7l21-81-58 0 0 28-24 0 0-28-62 0z m227-458l-364 0 4 32 356 0z m-320 56l-7 156-79 139c0 1 0 1 1 1l399 0-25-176-1 0 0-3-16-117z m378 130c0-5-5-10-10-10l-54 0 24 173 0 3 25 0c8 0 15-6 15-15z"/>
<glyph glyph-name="kitchen-machines" unicode="&#86;" d="M184 392l87 0 1-31c1-27 22-49 50-49l53 0c27 0 50 22 50 50l0 30 88 0 0 120-513 0 0-512 512 0 0 88-28 0c7 10 12 24 12 38l0 174-292 0 0-174c0-14 6-27 14-38l-34 0z m216-30c0-15-11-26-26-26l-53 0c-14 0-26 11-26 26l0 30 105 0z m88 54l-304 0 0 72 304 0z m-260-290l0 150 244 0 0-150c0-18-13-38-32-38l-176 0c-18 0-36 18-36 38z m260-62l0-40-304 0 0 40z m-328-40l-136 0 0 464 136 0z m144 232l88 0 0-24-88 0z m-212-8c-33 0-60-27-60-60 0-33 27-60 60-60 33 0 60 27 60 60 0 33-27 60-60 60z m0-96c-20 0-36 16-36 36 0 20 16 36 36 36 20 0 36-16 36-36 0-20-16-36-36-36z"/>
<glyph glyph-name="laminators" unicode="&#87;" d="M424 368l40 0 0-24-40 0z m-250-228c21 0 39 17 39 38 0 22-17 39-39 39-21 0-38-18-38-39 0-20 18-38 38-38z m0 53c8 0 15-7 15-15 0-8-7-14-15-14-8 0-14 6-14 14 0 8 6 15 14 15z m292 223l-50 0 0 96-320 0 0-96-50 0c-25 0-46-21-46-46l0-226 96 0 0-144 320 0 0 144 96 0 0 226c0 25-21 46-46 46z m-346 72l272 0 0-72-272 0z m272-464l-266 0 120 89 70-65 17 18-35 32 51 53 43-47z m0 115l-43 47-69-72-32 29-128-93 0 190 272 0z m96 29l-72 0 0 72 24 0 0 24-368 0 0-24 24 0 0-72-72 0 0 202c0 12 10 22 22 22l420 0c12 0 21-10 21-22l0-202z"/>
<glyph glyph-name="lighting" unicode="&#88;" d="M291 200l42 0 0-96 24 0 0 95 116 0-73 313-288 0-72-312 178 0 0-176-86 0 0-24 248 0 0 24-89 0z m-160 288l250 0 61-265-372 1z m111-288l25 0 0-176-25 0z"/>
<glyph glyph-name="media-furniture-storage" unicode="&#89;" d="M442 504l-372 0c-16 0-30-14-30-30l0-474 432 0 0 474c0 16-14 30-30 30z m-372-24l372 0c4 0 6-2 6-6l0-130-384 0 0 130c0 4 2 6 6 6z m378-160l0-136-384 0 0 136z m-384-296l0 136 384 0 0-136z m144 240l96 0 0-24-96 0z m-4 160l100 0 0-24-100 0z m0-320l100 0 0-24-100 0z"/>
<glyph glyph-name="microwaves" unicode="&#90;" d="M484 464l-456 0c-15 0-28-13-28-28l0-388 96 0 0 41 320 0 0-41 96 0 0 388c0 15-13 28-28 28z m-456-24l457 0c1 0 3-2 3-4l0-36-464 0 0 36c0 2 2 4 4 4z m-4-272l0 208 312 0 0-208z m336 208l128 0 0-208-128 0z m80-304l0 41-368 0 0-41-48 0 0 72 464 0 0-72z m-44 248l56 0 0-24-56 0z m0-72l56 0 0-24-56 0z"/>
<glyph glyph-name="mixers" unicode="&#48;" d="M447 104c27 0 49 20 49 44l0 124 16 0 0 24-144 0 0 16 44 0c15 0 28 13 28 28l0 12 48 0 0 124c0 20-16 36-36 36l-452 0 0-160 47 0 1-280-48 0 0-72 512 0 0 72-88 0 0 32z m25 44c0-11-11-20-25-20l-183 0c-14 0-25 9-25 20l0 124 233 0z m-128 148l-144 0 0-24 15 0 0-124c0-24 22-44 49-44l24 0 0-32-120 0 0 280 104 0 0-12c0-15 13-28 28-28l44 0z m72 44c0-2-2-4-4-4l-112 0c-2 0-4 2-4 4l0 12 120 0z m-392 36l0 112 428 0c6 0 12-6 12-12l0-100z m464-328l0-24-464 0 0 24 48 0-1 304 73 0 0-304z m-88 24l-88 0 0 32 88 0z m-340 368l96 0 0-24-96 0z"/>
<glyph glyph-name="monitors-projectors" unicode="&#49;" d="M208 346c-49 0-88-40-88-88 0-49 39-88 88-88 49 0 88 39 88 88 0 48-39 88-88 88z m0-152c-35 0-64 29-64 64 0 36 29 64 64 64 35 0 64-28 64-64 0-35-29-64-64-64z m200 100l24 0 0-73-24 0z m56 87l0 14c0 38-31 69-69 69l-59 0 0-83-42 0c-24 17-54 27-86 27-32 0-62-10-86-27l-122 0 0-341 62 0c19 0 34 15 34 34l0 46 54 0c18-8 37-12 59-12 21 0 41 4 59 12l148 0 0-46c0-19 15-34 34-34l62 0 0 341z m-104 59l35 0c25 0 45-20 45-45l0-14-80 0z m-288-366c0-5-5-10-10-10l-38 0 0 56 48 0z m-48 70l0 213 71 0c-23-27-37-61-37-99 0-46 21-87 53-114z m58 114c0 69 56 126 126 126 70 0 126-57 126-126 0-70-56-126-126-126-70 0-126 57-126 126z m406-194l-38 0c-5 0-10 5-10 10l0 46 48 0z m-182 80c32 27 52 68 52 114 0 37-14 72-37 99l167 0 0-213z"/>
<glyph glyph-name="motherboards" unicode="&#50;" d="M0 512l0-512 512 0 0 512z m488-488l-464 0 0 464 464 0z m-416 416l24 0 0-200-24 0z m64 0l24 0 0-200-24 0z m-27-384l78 0c20 0 37 17 37 37l0 50c0 20-17 37-37 37l-78 0c-20 0-37-17-37-37l0-50c0-20 17-37 37-37z m91 87l0-50c0-7-6-13-13-13l-27 0 0 76 27 0c7 0 13-6 13-13z m-104 0c0 7 6 13 13 13l27 0 0-76-27 0c-7 0-13 6-13 13z m184 17l152 0 0-24-152 0z m0-56l152 0 0-24-152 0z m16 192l24 0 0-44 24 0 0 44 16 0 0-44 24 0 0 44 24 0 0 24 44 0 0 24-44 0 0 16 44 0 0 24-44 0 0 24-24 0 0 44-24 0 0-44-16 0 0 44-24 0 0-44-24 0 0-24-44 0 0-24 44 0 0-16-44 0 0-24 44 0z m24 88l64 0 0-64-64 0z"/>
<glyph glyph-name="motorcycles" unicode="&#51;" d="M428 256c-5 0-10-1-14-2l-6 14c8 5 16 10 23 15 5 4 20 15-17 71l-3 4-42 10-16 41c-8 19-27 31-47 31l-38 0 0-24 38 0c11 0 20-6 24-17l10-25-37 8-2 0c-22 1-44-10-58-28l-1-2c-11-15-28-24-45-25-13 0-26 2-38 5l-95 30-59-68 98-34-2-6c-5 1-11 2-17 2-46 0-84-38-84-84 0-46 38-84 84-84 42 0 78 31 83 72l13 0 6-40 132 0 7 49c6 45 33 66 62 85l3-8c-27-13-46-42-46-75 0-45 38-83 84-83 46 0 84 38 84 84 0 46-38 84-84 84z m-31 82c9-15 17-31 17-37-4-3-9-7-15-10l-20 51z m-313-226c-33 0-60 27-60 60 0 33 27 60 60 60 3 0 6 0 9-1l-26-71 76 0c-5-27-30-48-59-48z m31 111c14-9 24-22 27-39l-41 0z m52-39c-4 27-20 50-43 62l2 7 16-6c18-6 30-21 32-39l4-23-11 0z m135-11l-4-29-92 0-8 66c-4 28-23 50-48 59l-104 37 26 28 80-24c15-5 30-7 46-7 24 1 48 14 64 35l2 4c9 12 22 18 36 18l52-11 27-70c-34-23-69-49-77-106z m126-61c-33 0-60 27-60 60 0 22 13 42 31 53l26-65 22 9-25 63c2 0 4 0 6 0 33 0 60-27 60-60 0-33-27-60-60-60z"/>
<glyph glyph-name="musical-instruments" unicode="&#52;" d="M506 478l-28 28c-4 4-9 6-15 6-5 0-10-2-14-6l-15-14-14 14-17-16 15-15-8-7-14 14-17-16 15-15-8-8c-6-5-8-13-5-20l-92-93-1 0-2 2c-21 13-44 20-68 20-36 0-68-18-84-47-9-16-24-35-46-40-21-5-40-15-55-30-25-25-36-59-32-96 4-33 20-67 45-92 28-29 68-45 106-45 31 0 61 12 82 32 15 16 25 34 29 56 5 21 25 36 40 45 23 13 38 33 44 59 8 30 2 64-17 93l0 1 0 1 92 93c2-1 4-1 6-1 5 0 10 1 14 5l8 8 15-14 17 17-15 14 7 7 15-14 17 17-15 14 15 15c8 8 8 20 0 28z m-250-229c-2 2-5 5-7 7l147 147 7-7z m-12-33c0-15-13-28-28-28-15 0-28 13-28 28 0 15 13 28 28 28 15 0 28-13 28-28z m49-62c-20-11-45-31-52-61-4-17-12-32-23-43-18-18-41-26-65-26-31 0-65 14-90 39-43 43-54 113-13 155 12 12 27 20 44 23 30 6 50 32 61 52 14 23 38 35 64 35 18 0 36-5 53-15l-46-46c-3 1-6 1-10 1-29 0-52-23-52-52 0-29 23-52 52-52 29 0 52 23 52 52 0 3 0 6-1 10l46 46c25-42 19-95-20-118z m135 252l-22 22 58 58 22-22z m-345-250l17 17 72-72-17-17z"/>
<glyph glyph-name="other-home-appliances" unicode="&#53;" d="M244 248l24 0 0-24-24 0z m64 0l24 0 0-24-24 0z m-128 0l24 0 0-24-24 0z m24 48l24 0 0-24-24 0z m80 0l24 0 0-24-24 0z m-80-96l24 0 0-24-24 0z m80 0l24 0 0-24-24 0z m157 0l-38 22c1 4 1 9 1 15 0 55-30 104-76 129l0 42 37 0c17 0 32 10 39 25l36 79-368 0 37-79c7-15 22-25 39-25l36 0 0-42c-46-26-76-74-76-130 0-5 0-10 1-15l-38-21-41-200 96 0 8 38 245 0 8-38 97 0z m-311 243l-20 45 292 0-20-45c-4-6-10-11-18-11l-217 0c-7 0-13 4-17 11z m78-35l96 0 0-32c-15 5-31 8-48 8-17 0-33-3-48-8z m48-48c68 0 124-56 124-124 0-68-56-124-124-124-68 0-124 56-124 124 0 68 56 124 124 124z m142-298l-284 0-8-38-48 0 34 160 22 12c17-62 74-108 142-108 68 0 125 46 142 108l22-12 34-160-48 0z"/>
<glyph glyph-name="other-power-equipment" unicode="&#54;" d="M464 40l0 472-24 0 0-304-82 0 1 0-81 215c-10 29-39 49-70 49l-152 0 0-257c-32-5-56-32-56-65l0-78 33 0c4-40 38-72 79-72 41 0 75 32 79 72l81 0c4-40 38-72 79-72 39 0 71 27 79 64l10 0 0-48 72 0 0 24z m-256 408c22 0 41-14 48-34l60-158-18 0c-12 0-24 8-29 20l-10 26 23 11-11 21-64-32 11-21 20 10 8-23c8-22 29-36 52-36l27 0 10-29-83-37c-15-6-32 0-39 15l-18 35-115 0 0 232z m-96-424c-31 0-56 25-56 56 0 31 25 56 56 56 31 0 56-25 56-56 0-31-25-56-56-56z m240 0c-31 0-56 25-56 56 0 31 25 56 56 56 31 0 56-25 56-56 0-31-25-56-56-56z m79 64c-4 40-38 72-79 72-38 0-71-27-78-64l-84 0c-7 37-40 64-78 64-38 0-71-27-78-64l-10 0 0 54c0 23 19 42 42 42l115 0 10-22c13-25 44-36 71-25l88 39 90 0 0-96z m-235 144l0 24-54 0-22 118-24-4 26-138z"/>
<glyph glyph-name="ovens-ranges" unicode="&#55;" d="M0 512l0-512 512 0 0 512z m488-24l0-72-54 0c-5 21-24 36-46 36-22 0-41-15-46-36l-44 0c-5 21-24 36-46 36-22 0-41-15-46-36l-44 0c-5 21-24 36-46 36-22 0-41-15-46-36l-46 0 0 72z m-76-84c0-14-10-24-24-24-14 0-24 10-24 24 0 14 10 24 24 24 14 0 24-10 24-24z m-136 0c0-14-10-24-24-24-14 0-24 10-24 24 0 14 10 24 24 24 14 0 24-10 24-24z m-136 0c0-14-10-24-24-24-14 0-24 10-24 24 0 14 10 24 24 24 14 0 24-10 24-24z m-116-380l0 368 46 0c5-21 24-36 46-36 22 0 41 15 46 36l44 0c5-21 24-36 46-36 22 0 41 15 46 36l44 0c5-21 24-36 46-36 22 0 41 15 46 36l54 0 0-368z m373 240l-290 0c-19 0-35-16-35-35l0-122c0-19 16-35 35-35l290 0c19 0 35 16 35 35l0 122c0 19-16 35-35 35z m11-157c0-6-5-11-11-11l-290 0c-6 0-11 5-11 11l0 122c0 6 5 11 11 11l290 0c6 0 11-5 11-11z m-336 213l360 0 0-24-360 0z"/>
<glyph glyph-name="personal-healthcare" unicode="&#56;" d="M360 404l0 35c0 23-18 41-41 41l-130 0c-23 0-41-18-41-41l0-35-148 0 0-352 512 0 0 352z m-188 35c0 9 7 17 17 17l131 0c9 0 16-7 16-17l0-35-164 0z m316-363l-464 0 0 304 464 0z m-282 48l101 0 0 50 50 0 0 100-50 0 0 50-101 0 0-50-50 0 0-101 50 0z m-26 74l0 53 50 0 0 50 53 0 0-50 50 0 0-53-50 0 0-50-53 0 0 50z"/>
<glyph glyph-name="pool-cleaners" unicode="&#57;" d="M448 193l0 79c0 22-18 40-40 40l-288 0 0 158c0 10 8 18 18 18l20 0c10 0 18-8 18-18l0-15c0-21 18-39 39-39l61 0 0-70 94 0 0 6 42 0 0 24-42 0 0 40 42 0 0 24-42 0 0 40 42 0 0 24-42 0 0 8-94 0 0-72-61 0c-8 0-15 6-15 15l0 15c0 23-19 42-42 42l-20 0c-23 0-42-19-42-42l0-158-41 0 0-122c-33-16-55-51-55-90 0-55 45-100 100-100 33 0 62 16 80 40l152 0c18-24 47-40 80-40 55 0 100 45 100 100 0 42-26 78-64 93z m-148 295l46 0 0-118-46 0z m-200-464c-42 0-76 34-76 76 0 42 34 76 76 76 42 0 76-34 76-76 0-42-34-76-76-76z m94 40c4 11 7 23 7 36-1 55-46 100-101 100-7 0-14-1-21-2l0 90 329 0c9 0 16-7 16-16l0-73c-4 1-8 1-12 1-55 0-100-45-100-100 0-13 2-25 6-36z m218-40c-42 0-76 34-76 76 0 42 34 76 76 76 42 0 76-34 76-76 0-42-34-76-76-76z m-268 244l88 0 0-24-88 0z"/>
<glyph glyph-name="refrigerators-freezers" unicode="&#33;" d="M439 512l-366 0c-23 0-41-18-41-41l0-431 80 0 0-40 80 0 0 40 128 0 0-40 80 0 0 40 80 0 0 431c0 23-18 41-41 41z m-366-24l366 0c10 0 17-7 17-17l0-151-320 0 0 112-80 0 0 39c0 10 7 17 17 17z m-17-168l0 88 56 0 0-88z m56-24l0-80-56 0 0 80z m264-232l0-40-32 0 0 40-176 0 0-40-32 0 0 40-80 0 0 128 80 0 0 104 320 0 0-232z"/>
<glyph glyph-name="remote-control" unicode="&#34;" d="M116 272l-24 0 0-32-32 0 0-24 32 0 0-32 24 0 0 32 32 0 0 24-32 0z m160 4c-26 0-48-22-48-48 0-26 22-48 48-48 26 0 48 22 48 48 0 26-22 48-48 48z m0-72c-14 0-24 10-24 24 0 14 10 24 24 24 14 0 24-10 24-24 0-14-10-24-24-24z m-86 259l38-14 8 22-46 18-46-18 8-22z m-39-56l10-22 29 13 29-13 10 22-39 19z m197 49l29 0 0-24-29 0z m0-40l29 0 0-24-29 0z m0-40l29 0 0-24-29 0z m43 80l29 0 0-24-29 0z m44 0l29 0 0-24-29 0z m-44-40l29 0 0-24-29 0z m44 0l29 0 0-24-29 0z m-44-40l29 0 0-24-29 0z m44 0l29 0 0-24-29 0z m-44-80l29 0 0-24-29 0z m44 0l29 0 0-24-29 0z m-44-40l29 0 0-24-29 0z m44 0l29 0 0-24-29 0z m-44-40l29 0 0-24-29 0z m44 0l29 0 0-24-29 0z m0-52l29 0 0-80-29 0z m-43 0l29 0 0-80-29 0z m-96 348l0-184-61 0c-1 0-4 1-5 3-6 15-21 25-37 25l-2 0c-17 0-31-10-37-25-1-1-3-3-5-3l-104 0c-25 0-45-20-45-45l0-278c0-3 2-5 5-5l111 0c2 0 4 2 5 4l31 116 80 0 39-117c1-1 3-3 5-3l95 0c3 0 5 2 5 5l0 11 136 0 0 496z m56-488l-62 0-40 120-116 0-32-120-78 0 0 259c0 11 10 21 21 21l104 0c11 0 21 7 26 18 3 6 9 10 16 10l2 0c7 0 13-4 16-10 5-11 15-18 26-18l96 0c11 0 21-10 21-21z m136 16l-112 0 0 243c0 25-20 45-45 45l-11 0 0 160 168 0z"/>
<glyph glyph-name="routers" unicode="&#35;" d="M477 200l-442 0c-19 0-35-16-35-35l0-165 512 0 0 165c0 19-16 35-35 35z m11-176l-464 0 0 141c0 6 5 11 11 11l442 0c6 0 11-5 11-11z m-268 88l200 0 0-24-200 0z m-136 0l32 0 0-24-32 0z m110 170l16-19c11 13 27 21 45 21 19 0 35-9 46-22l16 19c-15 17-37 27-62 27-23 0-45-10-61-26z m180 67c-31 29-72 47-118 47-46 0-87-18-118-47l15-19c26 26 63 42 102 42 40 0 76-16 103-42z m-118 119c63 0 122-25 165-64l15 18c-48 44-111 70-180 70-70 0-133-26-180-70l15-18c43 40 102 64 165 64z"/>
<glyph glyph-name="saw" unicode="&#36;" d="M512 224l-15 0c-2 7-6 24-21 42-11 12-26 21-45 28-8 2-17 4-25 5-3 5-5 10-8 14 13 10 28 20 42 29l2 1 30 18-26 21c-4 4-8 6-12 9-12 7-26 12-40 14l-2 0c-11 1-23-1-34-4-12-3-24-9-36-17-4 2-8 4-13 6 1 8 4 16 6 24 3 10 6 19 9 28l12 32-35 0c-11 0-21-3-31-6-14-4-26-12-36-22-2-2-3-3-4-4l-1-1c-11-13-19-28-26-47-5-1-9-3-14-4-8 15-15 31-20 47l-12 33-27-24c-9-8-16-17-22-28-12-22-14-49-6-78 1-5 3-10 4-14-3-5-6-10-9-16-14 6-27 13-41 20-1 1-2 2-3 2l-5 5-2 1-23 13-5-35c-1-6-2-10-2-16 0-14 3-28 8-40 5-11 12-21 22-30 2-2 4-4 7-6l-53 0 0-202c0-12 10-22 22-22l50 0 0 48 368 0 0-48 50 0c12 0 22 10 22 22 0 0 0 202 0 202z m-466 46c-4 9-6 20-6 30 0 4 0 8 1 13 1-1 2-2 3-3 18-10 37-19 54-26l10-3 4 9c5 9 10 18 17 27l4 5-3 7c-2 5-4 12-6 18-6 23-5 44 4 61 4 8 10 15 17 22 7-22 17-42 27-61l5-9 9 4c9 4 19 7 28 10l7 1 1 7c5 17 13 32 23 44 1 1 2 2 3 4 7 7 17 13 26 16 8 3 15 4 24 4-4-9-7-19-9-28-3-13-7-26-9-38l0-10 10-3c9-3 19-6 28-11l5-3 6 4c11 8 23 14 35 17 9 3 18 4 26 4 1 0 1 0 2 0 10-1 20-4 30-10 3-2 6-4 9-6-1-1-1-1-2-2-18-10-34-22-49-34-2-1-3-3-4-4l-8-6 6-9c5-8 10-17 14-26l2-7 7 0c10-1 20-4 28-6 14-5 25-12 34-21 7-8 12-17 15-25l-137 0c-3 46-40 83-87 83-48 0-85-39-87-85l-65 0-5 2c-11 6-22 13-30 21-7 7-13 15-17 23z m267-46l-126 0c3 33 30 59 63 59 34 0 61-26 63-59z m-265-200l-24 0 0 24 24 0z m440 0l-24 0 0 24 24 0z m0 48l-464 0 0 128 464 0z m-428 88l50 0 0-24-50 0z"/>
<glyph glyph-name="scales" unicode="&#37;" d="M82 348l-58-348 464 0-58 348-118 0 0 41c98 17 146 78 166 106 4 7 0 17-9 17l-427 0c-8 0-14-10-9-17 17-28 67-89 167-106l0-41z m378-324l-408 0 50 300 307 0z m-392 464l374 0c-46-53-108-80-187-80-102 0-159 46-187 80z m156-102c10-1 21-2 31-2 11 0 23 1 33 2l0-38-64 0z m32-332c66 0 120 54 120 120 0 67-54 120-120 120-66 0-120-53-120-120 0-66 54-120 120-120z m0 216c53 0 96-43 96-96 0-52-43-96-96-96-53 0-96 44-96 96 0 53 43 96 96 96z m-52-132l48 49 17-17-48-49z"/>
<glyph glyph-name="servers" unicode="&#38;" d="M124 456l24 0 0-24-24 0z m120 0l136 0 0-24-136 0z m-120-112l24 0 0-24-24 0z m120 0l136 0 0-24-136 0z m-120-112l24 0 0-24-24 0z m120 0l136 0 0-24-136 0z m200-128c-25 0-45-17-50-40l-84 0c-4 19-19 34-38 38l0 50 167 0c9 0 17 7 17 17 0 0 0 110 0 112l0 214c0 10-7 17-17 17l-366 0c-10 0-17-7-17-17l0-327c0-9 7-16 17-16l175 0 0-50c-19-4-34-19-38-38l-92 0c-5 23-25 40-50 40-29 0-52-23-52-52 0-29 23-52 52-52 25 0 45 17 50 40l92 0c5-23 25-40 50-40 25 0 45 17 50 40l84 0c5-23 25-40 50-40 29 0 52 23 52 52 0 29-23 52-52 52z m-364 272l352 0 0-88-352 0z m0 112l352 0 0-88-352 0z m0-224l352 0 0-88-352 0z m-12-240c-15 0-28 13-28 28 0 15 13 28 28 28 15 0 28-13 28-28 0-15-13-28-28-28z m192 0c-15 0-28 13-28 28 0 15 13 28 28 28 15 0 28-13 28-28 0-15-13-28-28-28z m184 0c-15 0-28 13-28 28 0 15 13 28 28 28 15 0 28-13 28-28 0-15-13-28-28-28z"/>
<glyph glyph-name="sewing-machine" unicode="&#39;" d="M479 360l-7 0 0 36c0 15-13 28-28 28l-44 0 0 88-72 0 0-88-16 0 0 88-72 0 0-88-152 0 0 20-24 0 0-20-36 0c-15 0-28-13-28-28l0-164 64 0 0-48 24 0 0 48 56 0 0 28c0 15 13 28 28 28l68 0 0-128-202 0c-21 0-38-17-38-38l0-122 472 0 0 232 7 0c19 0 33 14 33 33l0 62c0 19-14 33-33 33z m-127 128l24 0 0-64-24 0z m-88 0l24 0 0-64-24 0z m184-464l-424 0 0 24 424 0z m-424 48l0 50c0 8 6 14 14 14l226 0 0 176-92 0c-29 0-52-23-52-52l0-4-96 0 0 140c0 2 2 4 4 4l416 0c2 0 4-2 4-4l0-324z m464 193c0-5-4-9-9-9l-7 0 0 80 7 0c5 0 9-4 9-9z m-172-105l80 0 0-24-80 0z m0 40l80 0 0-24-80 0z m-252 168l24 0 0-76-24 0z m288-8c-26 0-48-22-48-48 0-26 22-48 48-48 26 0 48 22 48 48 0 26-22 48-48 48z m0-72c-14 0-24 10-24 24 0 14 10 24 24 24 14 0 24-10 24-24 0-14-10-24-24-24z"/>
<glyph glyph-name="shredders" unicode="&#40;" d="M184 447l144 0 0-24-144 0z m236-138l30 0 0-24-30 0z m92 39c0 20-16 36-36 36l-76 0 0 128-288 0 0-128-76 0c-20 0-36-16-36-36l0-233 128 0 0-101 24 0 0 194 32 0 0-186 24 0 0 186 36 0 0-208 24 0 0 208 36 0 0-154 24 0 0 154 32 0 0-189 24 0 0 96 128 0z m-376 140l240 0 0-104-240 0z m352-349l-104 0 0 69 44 0 0 24-348 0 0-24 48 0 0-69-104 0 0 209c0 6 6 12 12 12l440 0c6 0 12-6 12-12z"/>
<glyph glyph-name="snow-blower" unicode="&#41;" d="M512 0l0 408c0 0-25-3-56-14l48 119-90-1-80-214c-8-15-14-32-17-50l-13 0 0 29c0 19-16 35-35 35l-1 0 0 60-133 0 0-124-15 0 0 127-57 113c-7 15-21 24-38 24l-25 0 0-24 25 0c7 0 13-4 17-10l54-109 0-154c-54-5-96-52-96-107 0-60 48-108 108-108 41 0 76 22 94 56l187 0c56-44 123-56 123-56z m-24 31c-50 17-151 64-151 179 0 60 28 100 61 126l24 16c24 14 48 22 66 26z m-58 457l38 1-42-105-22-14c-6-4-11-8-17-12l-7-4z m-271-140l85 0 0-60 25 0c6 0 11-5 11-11l0-29-121 0z m-51-324c-46 0-84 38-84 84 0 46 38 84 84 84 46 0 84-38 84-84 0-46-38-84-84-84z m12 191l0 9 194 0c0-5-1-10-1-14 0-25 4-47 11-66l-80 0 0-24 90 0c8-15 18-28 28-40l-150 0c2 9 4 18 4 28 0 55-42 102-96 107z"/>
<glyph glyph-name="sofas-chairs" unicode="&#42;" d="M460 327l0 109c0 20-16 36-36 36l-337 0c-19 0-35-16-35-35l-1-115-52 0 0-213c0-19 15-34 34-34l23 0 0-45 24 0 0 45 352 0 0-45 24 0 0 45 22 0c19 0 34 15 34 34l0 218z m-384 109c0 6 6 12 12 12l336 0c6 0 12-6 12-12l0-110-24 0c-12 0-22-9-22-21l0-105-271 0 0 100c0 12-9 22-22 22l-22 0z m412-326c0-6-4-10-10-10l-445 0c-6 0-10 4-10 10l0 188 72 0 0-122 319 0 0 127 74 0z m-440 158l24 0 0-88-24 0z m392-4l24 0 0-88-24 0z"/>
<glyph glyph-name="speakers" unicode="&#43;" d="M64 512l0-512 384 0 0 512z m360-488l-336 0 0 464 336 0z m-168 32c66 0 120 54 120 120 0 66-54 120-120 120-66 0-120-54-120-120 0-66 54-120 120-120z m0 216c53 0 96-43 96-96 0-53-43-96-96-96-53 0-96 43-96 96 0 53 43 96 96 96z m0-168c40 0 72 32 72 72 0 40-32 72-72 72-40 0-72-32-72-72 0-40 32-72 72-72z m0 120c26 0 48-22 48-48 0-26-22-48-48-48-26 0-48 22-48 48 0 26 22 48 48 48z m-72 128c22 0 40 18 40 40 0 22-18 40-40 40-22 0-40-18-40-40 0-22 18-40 40-40z m0 56c9 0 16-7 16-16 0-9-7-16-16-16-9 0-16 7-16 16 0 9 7 16 16 16z m136-80c35 0 64 29 64 64 0 35-29 64-64 64-35 0-64-29-64-64 0-35 29-64 64-64z m0 104c22 0 40-18 40-40 0-22-18-40-40-40-22 0-40 18-40 40 0 22 18 40 40 40z"/>
<glyph glyph-name="storage" unicode="&#44;" d="M0 512l0-512 512 0 0 512z m488-488l-464 0 0 138 464 0z m0 164l-464 0 0 136 464 0z m-464 162l0 138 464 0 0-138z m48 80l40 0 0-24-40 0z m160 0l200 0 0-24-200 0z m-160-162l40 0 0-24-40 0z m160 0l200 0 0-24-200 0z m-160-162l40 0 0-24-40 0z m160 0l200 0 0-24-200 0z"/>
<glyph glyph-name="stud-sensor" unicode="&#45;" d="M136 0l240 0 0 512-240 0z m24 488l192 0 0-464-192 0z m76-256l44 0 0-24-44 0z m155 174c19-26 31-59 31-94 0-35-12-68-31-94l20-14c22 30 35 67 35 107 0 40-13 77-35 107z m-290 13c-22-30-35-67-35-107 0-40 13-77 35-107l20 13c-19 27-31 60-31 95 0 35 12 68 31 94z m366 37l-20-13c26-37 41-82 41-131 0-49-15-94-42-130l20-13c29 41 45 90 45 144 0 53-16 102-44 143z m-422 0c-28-41-45-90-45-144 0-54 17-103 45-144l20 13c-26 37-41 82-41 131 0 49 15 94 42 130z m155-144l112 0 0 128-112 0z m24 104l64 0 0-80-64 0z"/>
<glyph glyph-name="subwoofers" unicode="&#46;" d="M64 512l0-512 384 0 0 512z m360-488l-336 0 0 464 336 0z m-168 168c73 0 132 59 132 132 0 73-59 132-132 132-73 0-132-59-132-132 0-73 59-132 132-132z m0 240c59 0 108-48 108-108 0-59-48-108-108-108-59 0-108 48-108 108 0 59 49 108 108 108z m0-176c38 0 68 30 68 68 0 38-30 68-68 68-38 0-68-30-68-68 0-38 30-68 68-68z m0 112c24 0 44-20 44-44 0-24-20-44-44-44-24 0-44 20-44 44 0 24 20 44 44 44z m0-200c-31 0-56-25-56-56 0-31 25-56 56-56 31 0 56 25 56 56 0 31-25 56-56 56z m0-88c-18 0-32 14-32 32 0 18 14 32 32 32 18 0 32-14 32-32 0-18-14-32-32-32z"/>
<glyph glyph-name="tablets" unicode="&#47;" d="M423 512l-334 0c-14 0-25-11-25-25l0-462c0-14 11-25 25-25l334 0c14 0 25 11 25 25l0 462c0 14-11 25-25 25z m1-487c0-1-1-1-1-1l-334 0c-1 0-1 1-1 1l0 462c0 0 1 1 1 1l334 0c0 0 1-1 1-1z m-320 47l304 0 0 400-304 0z m24 376l256 0 0-352-256 0z m104-386l48 0 0-24-48 0z"/>
<glyph glyph-name="televisions" unicode="&#58;" d="M512 76l0 368-222 0 58 46-15 19-73-59-81 60-14-20 64-46-229 0 0-368 246 0 0-44-78 0 0-24 180 0 0 24-78 0 0 44z m-24 344l0-268-464 0 0 268z m-464-292l464 0 0-28-464 0z"/>
<glyph glyph-name="thermostats" unicode="&#59;" d="M256 512c-142 0-256-114-256-256 0-142 114-256 256-256 142 0 256 114 256 256 0 142-114 256-256 256z m12-488l0 28-24 0 0-28c-118 6-214 102-220 220l27 0 0 24-27 0c6 118 102 214 220 220l0-28 24 0 0 28c118-6 214-102 220-220l-28 0 0-24 28 0c-6-118-102-214-220-220z m-30 277l-40 54-20-14 41-55c-7-8-11-19-11-30 0-26 22-48 48-48 26 0 48 22 48 48 0 26-22 48-48 48-6 0-12-2-18-3z m42-45c0-14-10-24-24-24-14 0-24 10-24 24 0 14 10 24 24 24 14 0 24-10 24-24z m-24-144c-79 0-144 65-144 144 0 79 65 144 144 144l0 24c-93 0-168-75-168-168 0-93 75-168 168-168 90 0 163 71 167 160l-24 0c-4-76-66-136-143-136z"/>
<glyph glyph-name="tiller" unicode="&#60;" d="M513 311l-35 1-18 31c-9 15-26 25-43 25l-124 0-4-112-43 0-133 223c-15 21-38 33-63 33l-50 0 0-24 50 0c17 0 33-8 42-22l132-220-50-38c-12 5-26 7-42 7-116 1-132-151-132-151l55 0 1-1-45-47 18-16 43 46 43-46 13 12 13-12 43 46 43-46 18 17-44 47 1 1 48 0c16-38 52-64 96-64 51-1 94 37 102 87l64 0z m-96 33c9 0 17-5 22-13l11-19-136 0 1 32z m-289-322l-39 41 1 1 77 0 1-1z m-99 66c9 38 36 104 103 104 38 0 67-20 87-62 7-15 12-30 15-42z m316-64c-44 0-80 36-80 80 0 44 36 80 80 80 44 0 80-36 80-80 0-44-36-80-80-80z m143 88l-39 0c-4 54-49 96-103 96-48 0-88-32-100-76-11 23-26 47-48 63l47 36 107 0 0 24-39 0 1 32 154 0 21-1z"/>
<glyph glyph-name="timers" unicode="&#61;" d="M418 386l22 21 19-19 17 17-56 56-17-17 19-19-22-23c-30 24-66 41-105 48l0 38 40 0 0 24-155 0 0-24 44 0 0-38c-109-17-192-111-192-224 0-125 101-226 226-226 124 0 225 101 225 226 1 62-24 119-65 160z m-170 102l24 0 0-37c-5 0-10 1-14 1-4 0-7 0-10 0z m10-464c-112 0-202 90-202 202 0 111 90 201 202 201 111 0 201-90 201-201 0-112-89-202-201-202z m14 262l0 110-24 0 0-110c-27-5-48-29-48-58 0-33 27-60 60-60 33 0 60 27 60 60 0 29-21 54-48 58z m-12-94c-20 0-36 16-36 36 0 20 16 36 36 36 20 0 36-16 36-36 0-20-16-36-36-36z"/>
<glyph glyph-name="tractors" unicode="&#62;" d="M482 154l24 134-118 0 0 87c0 9 7 17 17 17l31 0 0 24-31 0c-23 0-41-18-41-41l0-87-40 0-64 192-202 0-50-282c-5-14-8-30-8-46 0-75 61-136 136-136 55 0 102 33 124 80l108 0c0-40 32-72 72-72 40 0 72 32 72 72 0 24-12 46-30 58z m-183 134l-155 0 0 168 99 0z m-221 168l42 0 0-169c-30-3-58-17-78-37z m58-416c-62 0-112 50-112 112 0 62 50 112 112 112 62 0 112-50 112-112 0-62-50-112-112-112z m236 79l-104 1c2 10 4 21 4 32 0 46-23 87-59 112l265 0-6-32-156 0 0-24 151 0-8-42c-6 1-13 2-19 2-31 0-58-20-68-49z m68-71c-26 0-48 22-48 48 0 26 22 48 48 48 26 0 48-22 48-48 0-26-22-48-48-48z"/>
<glyph glyph-name="trimmers" unicode="&#63;" d="M503 430l-5 14-160-114 112 161-14 6c-1 1-111 41-177-56-23-35-32-67-25-95 3-11 8-20 13-28-3-4-5-10-5-16l-20-4-6 32-216-44 18-88 216 44-7 32 16 4c3-8 7-16 13-22 6-6 14-10 21-13l-3-15-33 6-43-216 88-17 43 216-32 6 4 19c5 0 11 3 17 5 8-7 19-15 34-18 28-7 60 1 94 25 98 64 58 174 57 176z m-467-204l-8 41 169 34 8-41z m265-29l-34-169-41 8 34 169z m-28 75c-11 11-11 29 0 40 1 2 3 3 5 4l-13 19c-3 5-6 10-7 16-6 22 1 47 21 75 43 62 104 58 133 52l-104-147-8-12c5-1 9-3 13-7 11-11 11-29 0-40-11-10-29-10-40 0z m161 0c-29-19-54-26-76-22-9 3-16 8-22 12 9 13 11 28 7 43l142 100c6-28 10-91-51-133z"/>
<glyph glyph-name="vacuum-cleaners" unicode="&#64;" d="M468 72l0 54-28 0 0 237c0 82-67 149-149 149-81 0-149-67-149-149l0-123-142 0 0-208 78 0c12-19 33-32 57-32 24 0 46 13 58 32l92 0 0 132c0 42-35 76-76 76l-2 0 0 124c0 46 38 84 84 84 47 0 84-38 84-84l0-238-28 0 0-54-43 0 0-72 208 0 0 72z m-333-48c-24 0-44 20-44 44 0 24 20 44 44 44 24 0 44-20 44-44 0-24-20-44-44-44z m126 140l0-108-59 0c0 4 0 8 0 12 0 38-30 68-68 68-37 0-68-30-68-68 0-4 1-8 1-12l-43 0 0 160 185 0c29 0 52-23 52-52z m30 308c-59 0-108-49-108-108l0-124-17 0 0 123c0 69 56 125 125 125 69 0 125-56 125-125l0-237-17 0 0 238c0 59-49 108-108 108z m79-370l74 0 0-30-74 0z m118-78l-160 0 0 24 160 0z m-420 160l73 0 0-24-73 0z"/>
<glyph glyph-name="video" unicode="&#91;" d="M472 456l-432 0c-22 0-40-18-40-40l0-320c0-22 18-40 40-40l432 0c22 0 40 18 40 40l0 320c0 22-18 40-40 40z m16-360c0-9-7-16-16-16l-432 0c-9 0-16 7-16 16l0 320c0 9 7 16 16 16l432 0c9 0 16-7 16-16z m-320 44l200 120-200 112z m24 191l128-72-128-77z"/>
<glyph glyph-name="voip" unicode="&#93;" d="M389 167c-7 7-11 11-11 11-8 8-17 12-28 12-10 0-20-4-27-12l-29-28c-6-6-14-9-23-9-9 0-18 4-25 10l-94 92c-13 13-14 34-2 48l29 30c15 15 15 39 0 54l-59 59c-7 8-17 12-27 12-11 0-20-4-27-12l-30-30-2-2c-48-58-44-144 10-198l162-160c28-28 65-43 104-43 35 0 68 12 95 34l1 0 0 1 31 28 1 1 0 1c15 15 15 39 0 53-2-1-32 31-49 48z m31-87l-30-28c-22-18-51-28-80-28-32 0-64 13-87 37l-162 160c-46 45-49 117-8 166l29 31c3 2 7 4 11 4 4 0 7-2 10-4l59-60c6-5 6-14 0-20l-28-29-2-2c-20-23-18-59 3-81l94-92c11-11 26-17 42-17 15 0 28 5 39 14l0 1 1 1 30 29c2 2 6 4 10 4 4 0 7-2 11-4l10-11 1-1 20-20c14-15 28-29 28-29 5-6 5-15-1-21z m-60 180c0-7-1-14-2-20l24 0c0 6 1 13 1 20 1 69-54 124-123 124-10 0-19-2-28-3l0-25c9 2 18 4 28 4 55 0 100-45 100-100z m-100 188c-10 0-19-1-28-2l0-25c9 1 18 2 28 2 90 1 164-73 164-163 0-6-1-14-2-20l24 0c1 6 1 14 1 20 1 104-83 188-187 188z m0 64c-10 0-19-1-28-2l0-24c9 1 18 2 28 2 126 0 228-102 228-228 0-6 0-14-1-20l24 0c1 6 1 14 1 20 0 139-113 252-252 252z"/>
<glyph glyph-name="washers-dryers" unicode="&#94;" d="M444 512l-376 0c-22 0-40-18-40-40l0-472 456 0 0 472c0 22-18 40-40 40z m-376-24l376 0c9 0 16-7 16-16l0-88-408 0 0 88c0 9 7 16 16 16z m-16-464l0 336 408 0 0-336z m204 304c-70 0-128-58-128-128 0-70 58-128 128-128 70 0 128 58 128 128 0 70-58 128-128 128z m0-232c-58 0-104 46-104 104 0 58 46 104 104 104 58 0 104-46 104-104 0-58-46-104-104-104z m-180 352l104 0 0-24-104 0z m248 0l40 0 0-24-40 0z m64 0l40 0 0-24-40 0z"/>
<glyph glyph-name="watches" unicode="&#95;" d="M424 256c0 38-14 74-35 102l-45 154-168 0-50-150c-24-28-38-66-38-106 0-38 14-74 35-102l45-154 168 0 50 150c24 28 38 65 38 106z m-230 232l132 0 28-96c-27 20-61 32-97 32-35 0-67-10-94-29z m62-88c79 0 144-65 144-144 0-79-65-144-144-144-79 0-144 65-144 144 0 79 65 144 144 144z m62-376l-132 0-28 96c27-20 61-32 97-32 35 0 67 10 94 29z m-73 348l22 0 0-24-22 0z m0-208l22 0 0-24-22 0z m103 103l24 0 0-22-24 0z m-208 0l24 0 0-22-24 0z m111-7l80 88 18-16-80-88z"/>
<glyph glyph-name="wireless" unicode="&#96;" d="M270 209c37 5 66 37 66 75 0 42-34 76-76 76-42 0-76-34-76-76 0-37 26-68 62-74l0-186-94 0 0-24 216 0 0 24-98 0z m-62 75c0 29 23 52 52 52 29 0 52-23 52-52 0-29-23-52-52-52-29 0-52 23-52 52z m52 228c-126 0-228-102-228-228 0-66 28-126 73-167l16 17c-40 38-65 91-65 150 0 113 91 204 204 204 113 0 204-91 204-204 0-60-26-114-67-151l16-19c46 42 75 103 75 170 0 126-102 228-228 228z m0-72c-86 0-156-70-156-156 0-45 19-85 50-114l16 18c-26 24-42 58-42 96 0 73 59 132 132 132 73 0 132-59 132-132 0-38-16-73-42-97l16-18c31 29 50 69 50 114 0 87-70 157-156 157z"/>
<glyph glyph-name="1-products" unicode="&#123;" d="M512 84l0 396-512 0 0-396 246 0 0-44-78 0 0-24 180 0 0 24-78 0 0 44z m-24 372l0-280-464 0 0 280z m-464-304l464 0 0-44-464 0z"/>
<glyph glyph-name="2-manuals" unicode="&#124;" d="M336 512l-280 0 0-512 400 0 0 384z m0-35l87-93-87 0z m-256-453l0 464 232 0 0-128 120 0 0-336z m44 360l140 0 0-24-140 0z m0-88l256 0 0-24-256 0z m0-80l256 0 0-24-256 0z m0-80l256 0 0-24-256 0z"/>
<glyph glyph-name="3-brands" unicode="&#125;" d="M256 384l-35-88-93-6 71-60-23-92 80 51 80-51-23 92 71 60-93 6z m41-136l-11-10 4-14 8-33-28 19-13 8-13-8-29-19 9 33 4 14-13 10-25 22 33 3 15 1 6 14 13 32 13-32 5-14 15-1 34-3z m215 8l-35 59 1 69-60 34-34 60-69-1-59 35-59-35-69 1-34-60-60-34 1-69-35-59 35-59-1-69 60-34 34-60 69 1 59-35 59 35 69-1 34 60 60 34-1 69z m-59-59l1-55-48-26-6-4-3-6-27-47-54 1-6 0-7-4-47-28-47 28-6 3-6 0-55-1-26 48-4 6-6 3-47 27 1 54 0 6-4 7-28 47 28 47 3 6 0 6-1 55 48 26 6 4 3 6 27 47 54-1 6 0 7 4 47 28 47-28 6-3 6 0 55 1 26-48 4-6 6-3 47-27-1-54 0-6 3-6 28-47-27-48-3-6z"/>
<glyph glyph-name="4-data" unicode="&#126;" d="M40 512l0-512 424 0 0 512z m400-488l-376 0 0 464 376 0z m-188 232c24 0 44 20 44 44 0 24-20 44-44 44-24 0-44-20-44-44 0-24 20-44 44-44z m0 64c11 0 20-9 20-20 0-11-9-20-20-20-11 0-20 9-20 20 0 11 9 20 20 20z m-160 136l24 0 0-24-24 0z m296 0l24 0 0-24-24 0z m-12-316l24 0 0-80-24 0z m-64 0l24 0 0-80-24 0z m-161 52l-25-25c-18-11-30-30-30-53 0-34 28-62 62-62 35 0 63 28 63 62 0 8-2 16-4 22l0 21c11-3 23-5 36-5 81 0 147 66 147 148 0 82-66 148-148 148-82 0-148-66-148-148 0-42 18-81 47-108z m41 8l0-34c-7 5-15 8-24 10z m-34-124c-20 0-38 17-38 38 0 22 17 39 38 39 21 0 39-17 39-39 0-21-18-38-39-38z m94 348c68 0 124-56 124-124 0-68-56-124-124-124-13 0-25 2-36 6l0 76-48-48c-25 22-40 55-40 90 0 68 56 124 124 124z"/>
<glyph glyph-name="accessories" unicode="&#92;" d="M96 192l-96 0 0 201 102 119 268 0c21 0 38-17 38-38l0-44c0-20-17-38-38-38l-212 0-12 17c-2 3-5 4-7 4-1 0-5 0-7-3l-36-42z m-72 24l48 0 0 160 42 50c7 8 16 11 26 10 10-1 19-6 25-14l5-7 200 0c8 0 14 7 14 15l0 44c0 8-6 14-14 14l-256 0-90-105z m224 156l24 0 0-72-24 0z m-48 0l24 0 0-72-24 0z m96 0l24 0 0-72-24 0z m48 0l24 0 0-72-24 0z m80-372l-336 0-62 44c-16 11-26 30-26 49l0 75 121 0c16 0 31-8 40-22l1-2 19-48 151 0 19 50c9 14 24 22 40 22l121 0 0-75c0-19-10-38-26-49z m-328 24l320 0 57 39c9 7 15 18 15 30l0 51-97 0c-8 0-14-4-19-10l-24-62-184 0-24 62c-5 6-12 10-19 10l-97 0 0-51c0-12 6-23 15-30z"/>
<glyph glyph-name="adapters" unicode="&#57344;" d="M412 408l0 80-142 0c-72 0-139-26-190-75l-4-3 0-58-60 0 0-280 64 0 0-9c0-21 18-39 39-39l187 0c21 0 39 18 39 39l0 9 40 0 0-72 24 0 0 96-64 0 0 9c0 21-18 39-39 39l-187 0c-21 0-39-18-39-39l0-9-40 0 0 232 36 0 0-50 4-3c57-48 128-75 202-75l129 0 0 80 80 0 0 24-80 0 0 80 80 0 0 24z m-308-303c0 8 6 15 15 15l187 0c8 0 15-6 15-15l0-43c0-8-7-15-15-15l-187 0c-8 0-15 7-15 15z m284 119l-105 0c-66 0-131 23-183 66l0 108c46 43 106 66 170 66l118 0z"/>
<glyph glyph-name="air-conditioners" unicode="&#57345;" d="M0 472l0-264 512 0 0 264z m488-24l0-168-464 0 0 168z m-464-216l0 24 464 0 0-24z m40 96l384 0 0-24-384 0z m132 80l112 0 0-24-112 0z m-127-346l13-20c69 48 70 138 70 142l-24 0c0-1-1-82-59-122z m307 122l-24 0c0-4 1-94 69-142l13 20c-57 40-58 121-58 122z m-112-122l0 110-24 0 0-110-28 23-15-19 56-46 56 46-15 19z m-13-10l1 0z"/>
<glyph glyph-name="alarms" unicode="&#57346;" d="M460 112l0 32-27 32 0 87c0 88-54 165-131 188l0 11c0 28-21 50-47 50-25 0-46-22-46-50l0-11c-78-23-131-100-131-188l0-87-26-32 0-32-28 0 0-24 137 0c4-49 45-88 95-88 50 0 91 39 95 88l137 0 0 24z m-384 24l26 32 0 95c0 78 46 145 113 165l18 5 0 29c0 14 10 26 22 26 12 0 23-12 23-26l0-28 17-5c67-20 114-88 114-165l0-96 27-32 0-23-360 0z m180-112c-37 0-67 28-71 64l143 0c-5-36-35-64-72-64z m-88 300l24 0 0-92-24 0z"/>
<glyph glyph-name="computer-parts" unicode="&#57347;" d="M4 269l24 0 0-27-24 0z m0-61l24 0 0-26-24 0z m0-61l24 0 0-26-24 0z m0 244l24 0 0-26-24 0z m0-61l24 0 0-26-24 0z m410 133l-316 0c-28 0-49-21-49-49l0-317c0-27 21-49 49-49l317 0c27 0 49 22 49 49l0 317c-1 28-22 49-50 49z m25-365c0-14-11-25-25-25l-316 0c-14 0-25 11-25 25l0 316c0 14 11 25 25 25l317 0c14 0 25-11 25-25l0-316z m-329 12l293 0 0 292-293 0z m24 268l245 0 0-245-245 0z m350-109l24 0 0-27-24 0z m0-61l24 0 0-26-24 0z m0-61l24 0 0-26-24 0z m0 244l24 0 0-26-24 0z m0-61l24 0 0-26-24 0z m-241-302l27 0 0-24-27 0z m61 0l26 0 0-24-26 0z m61 0l26 0 0-24-26 0z m-244 0l26 0 0-24-26 0z m61 0l26 0 0-24-26 0z m61 480l27 0 0-24-27 0z m61 0l26 0 0-24-26 0z m61 0l26 0 0-24-26 0z m-244 0l26 0 0-24-26 0z m61 0l26 0 0-24-26 0z"/>
<glyph glyph-name="desktops" unicode="&#57348;" d="M459 96l-406 0-53-96 512 0z m-392-24l378 0 26-48-431 0z m112 80c-3-9-2-19 3-27 5-8 14-13 24-13l92 0c9 0 19 5 24 13 5 8 6 17 2 27l-4 16 192 0 0 344-512 0 0-344 184 0z m123-8l1-1c1-2 0-4-1-5 0 0-1-2-4-2l-92 0c-3 0-4 2-4 2-1 1-2 3-1 5l8 25 85 0z m186 344l0-252-464 0 0 252z m-464-276l464 0 0-20-464 0z"/>
<glyph glyph-name="headphones-headsets" unicode="&#57349;" d="M458 297l-1 0c-3 35-13 111-63 164-34 34-80 52-135 52-169 0-200-161-206-216l-3 0c-16 0-29-13-29-30l0-89c0-16 13-29 29-29l26 0 0-10c0-12 10-21 22-21l51 0 0 210-51 0c-8 0-14-3-18-9 3 19 10 43 20 67 30 68 84 104 159 104 49 0 88-16 118-45 37-38 50-92 54-128-4 7-11 12-19 12l-51 0 0-211 25 0c-1-36-26-62-57-62l-17 0 0 2c0 9-8 17-18 17l-72 0c-10 0-18-8-18-17l0-36c0-9 8-17 18-17l72 0c10 0 18 8 18 17l0 10 17 0c45 0 80 37 81 86l2 0c12 0 22 10 22 22l0 10 25 0c16 0 30 12 30 29l0 88c-1 17-14 30-31 30z m-383-124l-25 0c-3 0-5 2-5 5l0 89c0 3 2 6 5 6l25 0z m25 131l25 0 0-162-25 0z m188-275l-59 0 0 21 59 0z m97 275l25 0 0-162-25 0z m79-126c0-3-2-5-6-5l-24 0 0 100 24 0c4 0 6-3 6-6z"/>
<glyph glyph-name="lawn-mowers" unicode="&#57350;" d="M456 179l0 20c0 44-37 81-82 81l-22 0 0 36c0 20-16 36-36 36l-112 0c-20 0-36-16-36-36l0-36-20 0-70 184c-6 14-20 24-36 24l-42 0 0-24 42 0c6 0 12-4 15-9l65-173 0-39-84-47 0-112 40-13c12-32 42-54 78-54 26 0 49 12 65 30l143 0c15-18 38-30 65-30 45-1 83 37 83 83 0 37-23 67-56 79z m-24 19l0-14c-2 0-2 0-4 0-42 0-77-31-83-72l-106 0c-5 41-41 72-83 72-3 0-6 0-10-1l0 73 229 0c31 0 57-26 57-58z m-240 118c0 6 6 12 12 12l112 0c6 0 12-6 12-12l0-36-136 0z m-130-215l0 81 60 33 0-38c-29-13-50-43-50-77 0-1 0-2 0-2z m94-61c-33 0-60 27-60 60 0 33 27 60 60 60 33 0 60-27 60-60 0-11-3-21-8-30-10-18-30-30-52-30z m78 30c3 6 4 12 5 18l106 0c1-6 2-12 5-18z m194-30c-33 0-60 27-60 60 0 33 27 60 60 60 33 0 60-27 60-60 0-33-27-60-60-60z m-94 190l60 0 0-24-60 0z"/>
<glyph glyph-name="laptops" unicode="&#57351;" d="M481 173l-1 307-448 0 0-305-32-63 0-47c0-19 14-33 33-33l446 0c19 0 33 14 33 33l0 47z m-25 283l1-272-401 0 0 272z m-405-296l411-2 23-46-458 0z m437-95c0-5-4-9-9-9l-446 0c-5 0-9 4-9 9l0 23 464 0z"/>
<glyph glyph-name="search" unicode="&#57352;" d="M218 461c92 0 166-74 166-167 0-38-13-74-36-105l-13-15-15-13c-28-20-64-33-102-33-93 0-167 74-167 166 0 93 74 167 167 167m0 51c-121 0-218-97-218-218 0-120 97-217 218-217 51 0 99 18 135 48l126-125 33 33-125 126c30 38 48 84 48 135 0 121-97 218-217 218z"/>
<glyph glyph-name="telephone" unicode="&#57353;" d="M32 512l0-512 448 0 0 512z m424-488l-296 0 0 36 18 0c21 0 38 17 38 38l0 50c0 6-2 13-5 19l-17 30c-1 2-1 5-1 7l0 90c0 2 1 4 1 7l17 29c3 6 5 12 5 20l0 60c0 21-17 38-38 38l-60 0c-21 0-38-17-38-38l0-60c0-7 2-13 5-20l17-29c1-3 1-5 1-7l0-91c0-2-1-5-1-7l-17-30c-3-5-5-12-5-19l0-50c0-21 17-38 38-38l18 0 0-35-80 0 0 464 400 0z m-333 289l-17 29c-1 3-1 5-1 8l0 60c0 8 6 14 13 14l61 0c7 0 14-6 14-14l0-60c0-3-1-5-2-8l-17-29c-3-6-4-12-4-19l0-91c0-6 1-13 4-19l17-30c2-2 2-4 2-7l0-50c0-7-7-14-14-14l-61 0c-7 0-13 7-13 14l0 50c0 3 1 5 1 7l17 30c3 6 5 12 5 19l0 91c0 7-2 13-5 19z m141-73l30 0 0-24-30 0z m56 0l30 0 0-24-30 0z m58 0l30 0 0-24-30 0z m-114-48l30 0 0-24-30 0z m56 0l30 0 0-24-30 0z m58 0l30 0 0-24-30 0z m0-48l30 0 0-24-30 0z m-58 0l30 0 0-24-30 0z m-56 0l30 0 0-24-30 0z m4 136l135 0c11 0 20 9 20 20l0 128c1 11-8 20-19 20l-136 0c-11 0-20-9-20-20l0-127c0-12 9-21 20-21z m4 144l128 0 0-120-128 0z"/>
<glyph glyph-name="printers-copiers" unicode="&#57354;" d="M416 340l32 0 0-24-32 0z m-248-144l176 0 0-24-176 0z m0-56l176 0 0-24-176 0z m0-56l176 0 0-24-176 0z m310 332l-62 0 0 96-320 0 0-96-62 0c-19 0-34-15-34-34l0-254 96 0 0-128 320 0 0 128 96 0 0 254c0 19-15 34-34 34z m-358 72l272 0 0-72-272 0z m272-464l-272 0 0 208 272 0z m96 128l-72 0 0 80 28 0 0 24-376 0 0-24 28 0 0-80-72 0 0 230c0 6 4 10 10 10l444 0c6 0 10-4 10-10z"/>
<glyph glyph-name="modems" unicode="&#57355;" d="M478 166l-210 0 0 188-24 0 0-188-210 0c-19 0-34-16-34-35l0-131 512 0 0 132c0 18-15 34-34 34z m10-142l-464 0 0 108c0 6 5 10 10 10l444 0c5 0 10-4 10-10z m-148 71l32 0 0-24-32 0z m72 0l32 0 0-24-32 0z m-137 311c0-10-8-19-19-19-11 0-19 9-19 19 0 11 8 20 19 20 11 0 19-9 19-20z m37-57c15 14 24 34 24 57 0 22-9 42-23 56l-17-16c10-11 16-24 16-40 0-16-6-30-17-40z m-95 17c-11 10-17 24-17 40 0 15 6 29 16 39l-17 17c-14-15-23-35-23-56 0-23 10-43 24-58z m138-60c26 26 42 61 42 100 0 40-16 74-41 100l-17-17c21-21 35-51 35-83 0-32-14-61-35-83z m-181 17c-21 21-35 51-35 83 0 32 13 61 34 83l-17 17c-26-26-41-61-41-100 0-39 16-74 42-100z"/>
<glyph glyph-name="mobile-phones" unicode="&#57356;" d="M388 512l-264 0c-15 0-28-13-28-28l0-456c0-15 13-28 28-28l264 0c15 0 28 13 28 28l0 456c0 15-13 28-28 28z m-264-24l264 0c2 0 4-2 4-4l0-52-272 0 0 52c0 2 2 4 4 4z m268-80l0-299-272 0 0 299z m-4-384l-264 0c-2 0-4 2-4 4l0 57 272 0 0-57c0-2-2-4-4-4z m-166 448l68 0 0-24-68 0z m16-407l33 0 0-24-33 0z"/>
<glyph glyph-name="small-arrow-r" unicode="&#57357;" d="M205 4l-23 11 123 241-123 241 23 11 128-252z"/>
<glyph glyph-name="monitors" unicode="&#57358;" d="M0 480l0-394c0-1 1-2 2-2l244 0 0-44-78 0 0-24 180 0 0 24-78 0 0 44 240 0c0 0 1 1 1 2l0 394z m488-24l0-280-464 0 0 280z m-464-348l0 44 464 0 0-44z"/>
<glyph glyph-name="pc-components" unicode="&#57359;" d="M493 448l-130 0c-10 0-19-9-19-19l0-346c0-10 9-19 19-19l130 0c10 0 19 9 19 19l0 346c0 10-9 19-19 19z m-5-360l-120 0 0 336 120 0z m-488 51l152 0 0-50-56 0 0-24 136 0 0 24-56 0 0 50 152 0 0 277-328 0z m24 24l0 21 280 0 0-21z m0 45l0 136 280 0 0-136z m280 184l0-24-280 0 0 24z m82-20l84 0 0-24-84 0z m0-50l84 0 0-24-84 0z m25-158l34 0 0-24-34 0z"/>
<glyph glyph-name="peripherals" unicode="&#57360;" d="M272 392l0 25c0 25-20 45-46 45l-70 1c-11 1-20 10-20 21l0 28-24 0 0-28c0-24 20-44 44-45l70-1c12 0 22-9 22-21l0-25-248 0 0-328 512 0 0 328z m216-304l-464 0 0 280 464 0z m-40 224l-24 0 0-72-28 0 0-24 52 0z m-312-144l238 0 0-24-238 0z m-72 72l68 0 0-24-68 0z m0-72l32 0 0-24-32 0z m352 0l32 0 0-24-32 0z m-352 144l32 0 0-24-32 0z m72 0l32 0 0-24-32 0z m72 0l32 0 0-24-32 0z m72 0l32 0 0-24-32 0z m-104-72l32 0 0-24-32 0z m72 0l32 0 0-24-32 0z m72 0l32 0 0-24-32 0z m32 72l32 0 0-24-32 0z"/>
<glyph glyph-name="small-arrow-l" unicode="&#57361;" d="M307 4l23 11-123 241 123 241-23 11-128-252z"/>
</font>
</defs>
</svg>
